<svg width="93" height="106" viewBox="0 0 93 106" fill="none" xmlns="http://www.w3.org/2000/svg">
<path d="M91.5 10.9006V102.512L82.578 94.6618L76.163 88.7492L76.1606 88.747L69.3605 82.4523L65.4123 78.7974L66.9 83.9678L69.166 91.8424H10.8944C5.71614 91.8424 1.5 87.6446 1.5 82.4418V10.9006C1.5 5.69791 5.71644 1.5 10.8948 1.5H82.1056C87.2839 1.5 91.5 5.69785 91.5 10.9006ZM60.4443 70.0728L63.0925 73.2229V70.5234C68.5418 70.0694 72.4404 68.1036 75.0325 66.1432C76.4347 65.0827 77.4469 64.0301 78.1153 63.2317C78.4497 62.8323 78.6989 62.4954 78.8687 62.2513C78.9537 62.1292 79.0188 62.0302 79.065 61.958C79.088 61.9219 79.1063 61.8924 79.12 61.8702L79.137 61.8422L79.1429 61.8323L79.1452 61.8285L79.1462 61.8268C79.1466 61.826 79.147 61.8253 77.8544 61.0642L79.147 61.8253L79.3544 61.473V61.0642C79.3544 52.3293 77.3947 44.447 75.447 38.7637C74.4717 35.9179 73.4954 33.6121 72.7603 32.0126C72.3925 31.2126 72.0848 30.5884 71.8671 30.1609C71.7582 29.9471 71.6718 29.7824 71.6116 29.6694C71.5816 29.6129 71.558 29.5693 71.5415 29.5389L71.5221 29.5033L71.5165 29.4931L71.5147 29.4898L71.514 29.4887C71.5138 29.4882 71.5136 29.4879 70.2016 30.2149L71.5136 29.4879L71.3574 29.2059L71.0991 29.0131C67.0822 26.0131 63.1548 24.5492 60.2195 23.836C58.7519 23.4795 57.5299 23.3099 56.6642 23.2296C56.2311 23.1895 55.8865 23.1716 55.644 23.1639C55.5228 23.16 55.427 23.1587 55.3584 23.1584C55.3241 23.1583 55.2966 23.1584 55.2761 23.1586L55.2506 23.1589L55.2418 23.159L55.2384 23.1591L55.237 23.1591C55.2364 23.1591 55.2359 23.1591 55.2576 24.1614L55.2357 23.1591L54.5769 23.1736L54.1419 23.6685L53.3979 24.5149L52.3513 25.7056C52.2117 25.6883 52.0723 25.6715 51.9332 25.6555L51.925 25.6546C48.3625 25.2636 44.767 25.2845 41.2101 25.7164L40.0509 24.331L39.5194 23.6958L39.0825 23.1736L38.4017 23.1588L38.386 23.8809C38.386 23.8809 38.3859 23.8809 38.3859 23.8809C38.4015 23.1588 38.401 23.1588 38.4005 23.1588L38.399 23.1587L38.3957 23.1587L38.3869 23.1585L38.3614 23.1582C38.3409 23.158 38.3134 23.1579 38.2791 23.1581C38.2105 23.1583 38.1147 23.1597 37.9935 23.1635C37.751 23.1713 37.4064 23.1891 36.9733 23.2293C36.1076 23.3096 34.8856 23.4792 33.4181 23.8358C30.4828 24.549 26.5553 26.0129 22.5385 29.0127L22.2802 29.2056L22.1239 29.4875L23.436 30.2145C22.1239 29.4875 22.1237 29.4879 22.1235 29.4884L22.1229 29.4895L22.1211 29.4928L22.1154 29.503L22.096 29.5386C22.0795 29.569 22.056 29.6126 22.0259 29.6691C21.9658 29.7821 21.8794 29.9468 21.7705 30.1606C21.5528 30.5881 21.245 31.2123 20.8773 32.0123C20.1422 33.6119 19.166 35.9177 18.1908 38.7636C16.2431 44.4469 14.2835 52.3293 14.2835 61.0642V61.4688L14.4869 61.8185L15.7835 61.0642C14.4869 61.8185 14.4874 61.8193 14.4878 61.82L14.4888 61.8217L14.4911 61.8256L14.4969 61.8355L14.5138 61.8636C14.5273 61.886 14.5455 61.9155 14.5684 61.9517C14.6141 62.024 14.6787 62.1232 14.7629 62.2455C14.9312 62.4899 15.1784 62.8272 15.5103 63.227C16.1738 64.0261 17.1796 65.0797 18.5756 66.1409C21.3805 68.2733 25.7281 70.4104 31.9447 70.6064L32.68 70.6296L33.1485 70.0624L31.992 69.1072L33.1486 70.0624L33.1487 70.0623L33.149 70.0619L33.1501 70.0605L33.1545 70.0552L33.1715 70.0346L33.2372 69.9549C33.2945 69.8854 33.3779 69.784 33.483 69.6561C33.6932 69.4004 33.9899 69.0386 34.3366 68.6137C35.0294 67.7648 35.9246 66.6606 36.7281 65.6469L37.3994 64.7999C38.1804 64.9967 38.9939 65.1791 39.8398 65.3418L39.8488 65.3434C43.9761 66.1106 48.838 66.3882 54.1504 65.3982C54.8581 65.2779 55.569 65.1335 56.284 64.964L56.9097 65.7531C57.7158 66.7697 58.5998 67.85 59.2802 68.6737C59.6209 69.0861 59.9115 69.4353 60.117 69.6817C60.1858 69.764 60.245 69.8349 60.2934 69.8928C60.3175 69.9215 60.3389 69.947 60.3574 69.9692L60.4217 70.0458L60.4384 70.0658L60.4428 70.0709L60.4439 70.0723L60.4442 70.0726L60.4443 70.0727L61.5925 69.1076L60.4443 70.0728ZM40.8018 50.2445L40.8016 50.2569V50.2693C40.8016 52.794 38.9622 54.643 36.881 54.643C34.8442 54.643 32.9609 52.7841 32.9609 50.2693C32.9609 47.7449 34.8002 45.896 36.881 45.896H36.8814C38.9835 45.896 40.8428 47.7632 40.8018 50.2445ZM52.3576 50.2693C52.3576 47.7451 54.1971 45.896 56.2784 45.896C58.3592 45.896 60.1986 47.7449 60.1986 50.2693C60.1986 52.7941 58.3592 54.643 56.2784 54.643C54.2414 54.643 52.3576 52.7839 52.3576 50.2693Z" fill="#F5D21F" stroke="#2E2D2D" stroke-width="3"/>
</svg>
