<svg width="448" height="113" viewBox="0 0 448 113" fill="none" xmlns="http://www.w3.org/2000/svg">
<mask id="path-1-inside-1_12:489" fill="white">
<rect x="364" y="17" width="32" height="33" rx="3"/>
</mask>
<rect x="364" y="17" width="32" height="33" rx="3" fill="white" stroke="#2E2D2D" stroke-width="10" mask="url(#path-1-inside-1_12:489)"/>
<mask id="path-2-inside-2_12:489" fill="white">
<rect x="412" y="17" width="32" height="33" rx="3"/>
</mask>
<rect x="412" y="17" width="32" height="33" rx="3" fill="white" stroke="#2E2D2D" stroke-width="10" mask="url(#path-2-inside-2_12:489)"/>
<mask id="path-3-inside-3_12:489" fill="white">
<rect x="387" y="62" width="32" height="33" rx="3"/>
</mask>
<rect x="387" y="62" width="32" height="33" rx="3" fill="white" stroke="#2E2D2D" stroke-width="10" mask="url(#path-3-inside-3_12:489)"/>
<path d="M380 48L403.034 63L430 48" stroke="#2E2D2D" stroke-width="5"/>
<path d="M11.68 75.48C8.16 75.48 5.65333 74.56 4.16 72.72C2.69333 70.8533 1.96 68.1733 1.96 64.68V53C1.96 49.4267 2.69333 46.7333 4.16 44.92C5.62667 43.08 8.13333 42.16 11.68 42.16C15.0667 42.16 17.4667 42.9733 18.88 44.6C20.2933 46.2267 21 48.5333 21 51.52V54.32H14V51.08C14 49.8267 13.8667 48.8667 13.6 48.2C13.3333 47.5333 12.6933 47.2 11.68 47.2C10.6667 47.2 10 47.56 9.68 48.28C9.36 48.9733 9.2 49.9467 9.2 51.2V66.44C9.2 67.72 9.36 68.7067 9.68 69.4C10.0267 70.0667 10.6933 70.4 11.68 70.4C12.6667 70.4 13.2933 70.0667 13.56 69.4C13.8533 68.7067 14 67.72 14 66.44V63.04H21V65.84C21 68.88 20.2933 71.2533 18.88 72.96C17.4667 74.64 15.0667 75.48 11.68 75.48ZM32.1791 75.4C29.6457 75.4 27.6591 74.76 26.2191 73.48C24.8057 72.2 24.0991 70.32 24.0991 67.84V59.04C24.0991 56.56 24.8057 54.68 26.2191 53.4C27.6591 52.12 29.6457 51.48 32.1791 51.48C34.7124 51.48 36.6991 52.1333 38.1391 53.44C39.5791 54.72 40.2991 56.5867 40.2991 59.04V67.84C40.2991 70.2933 39.5791 72.1733 38.1391 73.48C36.6991 74.76 34.7124 75.4 32.1791 75.4ZM32.2191 71.08C32.8324 71.08 33.2591 70.8533 33.4991 70.4C33.7391 69.92 33.8591 69.2133 33.8591 68.28V58.6C33.8591 57.6667 33.7391 56.9733 33.4991 56.52C33.2591 56.04 32.8324 55.8 32.2191 55.8C31.6057 55.8 31.1657 56.04 30.8991 56.52C30.6591 57 30.5391 57.6933 30.5391 58.6V68.28C30.5391 69.2133 30.6591 69.92 30.8991 70.4C31.1657 70.8533 31.6057 71.08 32.2191 71.08ZM43.915 51.88H50.435V54.2C52.2483 52.3867 54.1017 51.48 55.995 51.48C57.3817 51.48 58.435 51.9867 59.155 53C59.9017 53.9867 60.275 55.28 60.275 56.88V75H53.795V57.8C53.795 57.2133 53.6883 56.7867 53.475 56.52C53.2883 56.2267 52.955 56.08 52.475 56.08C51.9417 56.08 51.2617 56.36 50.435 56.92V75H43.915V51.88ZM64.9084 56.28H62.7084V51.88H64.9084V50.16C64.9084 47.9467 65.3618 46.2667 66.2684 45.12C67.2018 43.9467 68.8018 43.36 71.0684 43.36C71.8951 43.36 72.8284 43.44 73.8684 43.6V48.04C73.4951 47.9867 73.1884 47.96 72.9484 47.96C72.4418 47.96 72.0551 48.1067 71.7884 48.4C71.5484 48.6933 71.4284 49.2 71.4284 49.92V51.88H82.1884V75H75.7484V56.28H71.4284V75H64.9084V56.28ZM76.1484 43.44H82.1884V47.96H76.1484V43.44ZM93.7397 83C91.073 83 88.9797 82.6 87.4597 81.8C85.9397 81.0267 85.1797 79.8533 85.1797 78.28C85.1797 76.3067 86.3797 74.7733 88.7797 73.68C86.6464 73.0933 85.5797 71.8667 85.5797 70C85.5797 69.12 85.7797 68.3467 86.1797 67.68C86.6064 67.0133 87.2597 66.2933 88.1397 65.52C86.6197 64.16 85.8597 62.16 85.8597 59.52C85.8597 56.9333 86.5664 54.9467 87.9797 53.56C89.4197 52.1733 91.473 51.48 94.1397 51.48C96.513 51.48 98.3397 52.08 99.6197 53.28C100.233 52.2933 101.166 51.4933 102.42 50.88L103.26 50.48L104.78 53.6C104.406 53.7333 103.833 53.9733 103.06 54.32C102.313 54.64 101.686 54.9467 101.18 55.24C101.793 56.52 102.1 57.96 102.1 59.56C102.1 62.0933 101.42 64.0533 100.06 65.44C98.7264 66.8267 96.753 67.52 94.1397 67.52C92.6997 67.52 91.3797 67.3067 90.1797 66.88C89.7797 67.44 89.5797 67.9067 89.5797 68.28C89.5797 68.6 89.7397 68.8533 90.0597 69.04C90.4064 69.2267 90.9797 69.3733 91.7797 69.48L97.8597 70.16C99.8064 70.3733 101.246 71 102.18 72.04C103.14 73.08 103.62 74.4667 103.62 76.2C103.62 78.4667 102.833 80.16 101.26 81.28C99.713 82.4267 97.2064 83 93.7397 83ZM94.1397 63.64C94.8597 63.64 95.3397 63.3467 95.5797 62.76C95.8197 62.1733 95.9397 61.0933 95.9397 59.52C95.9397 57.9467 95.8197 56.8667 95.5797 56.28C95.3397 55.6667 94.8597 55.36 94.1397 55.36C93.4197 55.36 92.9397 55.6533 92.6997 56.24C92.4597 56.8267 92.3397 57.92 92.3397 59.52C92.3397 61.0667 92.4597 62.1467 92.6997 62.76C92.9397 63.3467 93.4197 63.64 94.1397 63.64ZM94.5797 78.28C96.153 78.28 97.2997 78.1467 98.0197 77.88C98.7664 77.6133 99.1397 77.1333 99.1397 76.44C99.1397 75.88 98.8864 75.4667 98.3797 75.2C97.8997 74.96 96.993 74.7733 95.6597 74.64L91.3797 74.2C90.473 74.8933 90.0197 75.6133 90.0197 76.36C90.0197 77.0267 90.3664 77.5067 91.0597 77.8C91.7797 78.12 92.953 78.28 94.5797 78.28ZM110.339 75.4C108.952 75.4 107.885 74.9067 107.139 73.92C106.392 72.9067 106.019 71.6 106.019 70V51.88H112.539V69.24C112.539 69.8267 112.645 70.2667 112.859 70.56C113.072 70.8533 113.419 71 113.899 71C114.325 71 114.965 70.76 115.819 70.28V51.88H122.299V75H115.819V72.88C114.005 74.56 112.179 75.4 110.339 75.4ZM126.495 51.88H133.015V55.72C133.815 54.3067 134.588 53.2667 135.335 52.6C136.082 51.9333 136.962 51.6 137.975 51.6C138.348 51.6 138.682 51.64 138.975 51.72V58.2C138.175 57.88 137.468 57.72 136.855 57.72C135.442 57.72 134.162 58.4667 133.015 59.96V75H126.495V51.88ZM149.288 75.4C146.754 75.4 144.781 74.7333 143.368 73.4C141.954 72.04 141.248 70.1333 141.248 67.68V59.2C141.248 56.7467 141.954 54.8533 143.368 53.52C144.781 52.16 146.754 51.48 149.288 51.48C151.848 51.48 153.768 52.1333 155.048 53.44C156.328 54.7467 156.968 56.6667 156.968 59.2V63.84H147.688V68.28C147.688 69.9333 148.221 70.76 149.288 70.76C150.408 70.76 150.968 70.0133 150.968 68.52V66.08H156.968V68.32C156.968 70.64 156.288 72.4 154.928 73.6C153.594 74.8 151.714 75.4 149.288 75.4ZM150.968 60.8V58.48C150.968 57.6267 150.808 57.0267 150.488 56.68C150.194 56.3067 149.781 56.12 149.248 56.12C148.741 56.12 148.354 56.32 148.088 56.72C147.821 57.12 147.688 57.8267 147.688 58.84V60.8H150.968ZM171.391 77.2C172.671 77.2 173.604 77.0533 174.191 76.76C174.804 76.4933 175.111 75.9867 175.111 75.24C175.111 74.5733 174.831 73.28 174.271 71.36L168.831 51.88H174.951L177.871 65.24L180.071 51.88H186.231L180.911 75.56C180.404 77.8267 179.484 79.4133 178.151 80.32C176.818 81.2533 175.058 81.72 172.871 81.72H171.391V77.2ZM196.281 75.4C193.747 75.4 191.761 74.76 190.321 73.48C188.907 72.2 188.201 70.32 188.201 67.84V59.04C188.201 56.56 188.907 54.68 190.321 53.4C191.761 52.12 193.747 51.48 196.281 51.48C198.814 51.48 200.801 52.1333 202.241 53.44C203.681 54.72 204.401 56.5867 204.401 59.04V67.84C204.401 70.2933 203.681 72.1733 202.241 73.48C200.801 74.76 198.814 75.4 196.281 75.4ZM196.321 71.08C196.934 71.08 197.361 70.8533 197.601 70.4C197.841 69.92 197.961 69.2133 197.961 68.28V58.6C197.961 57.6667 197.841 56.9733 197.601 56.52C197.361 56.04 196.934 55.8 196.321 55.8C195.707 55.8 195.267 56.04 195.001 56.52C194.761 57 194.641 57.6933 194.641 58.6V68.28C194.641 69.2133 194.761 69.92 195.001 70.4C195.267 70.8533 195.707 71.08 196.321 71.08ZM212.097 75.4C210.71 75.4 209.643 74.9067 208.897 73.92C208.15 72.9067 207.777 71.6 207.777 70V51.88H214.297V69.24C214.297 69.8267 214.403 70.2667 214.617 70.56C214.83 70.8533 215.177 71 215.657 71C216.083 71 216.723 70.76 217.577 70.28V51.88H224.057V75H217.577V72.88C215.763 74.56 213.937 75.4 212.097 75.4ZM228.253 51.88H234.773V55.72C235.573 54.3067 236.346 53.2667 237.093 52.6C237.839 51.9333 238.719 51.6 239.733 51.6C240.106 51.6 240.439 51.64 240.733 51.72V58.2C239.933 57.88 239.226 57.72 238.613 57.72C237.199 57.72 235.919 58.4667 234.773 59.96V75H228.253V51.88ZM253.72 51.88H260.24V53.56C260.986 52.8667 261.8 52.3467 262.68 52C263.56 51.6533 264.413 51.48 265.24 51.48C266.92 51.48 268.16 52.1067 268.96 53.36C269.786 54.6133 270.2 56.2533 270.2 58.28V68.24C270.2 70.4533 269.76 72.2 268.88 73.48C268 74.76 266.76 75.4 265.16 75.4C263.533 75.4 261.893 74.68 260.24 73.24V82.6H253.72V51.88ZM261.96 71.2C262.546 71.2 262.973 70.96 263.24 70.48C263.533 70 263.68 69.3733 263.68 68.6V57.8C263.68 57.1067 263.546 56.5333 263.28 56.08C263.013 55.6267 262.613 55.4 262.08 55.4C261.44 55.4 260.826 55.6667 260.24 56.2V70.6C260.853 71 261.426 71.2 261.96 71.2ZM281.515 75.4C278.982 75.4 276.995 74.76 275.555 73.48C274.142 72.2 273.435 70.32 273.435 67.84V59.04C273.435 56.56 274.142 54.68 275.555 53.4C276.995 52.12 278.982 51.48 281.515 51.48C284.048 51.48 286.035 52.1333 287.475 53.44C288.915 54.72 289.635 56.5867 289.635 59.04V67.84C289.635 70.2933 288.915 72.1733 287.475 73.48C286.035 74.76 284.048 75.4 281.515 75.4ZM281.555 71.08C282.168 71.08 282.595 70.8533 282.835 70.4C283.075 69.92 283.195 69.2133 283.195 68.28V58.6C283.195 57.6667 283.075 56.9733 282.835 56.52C282.595 56.04 282.168 55.8 281.555 55.8C280.942 55.8 280.502 56.04 280.235 56.52C279.995 57 279.875 57.6933 279.875 58.6V68.28C279.875 69.2133 279.995 69.92 280.235 70.4C280.502 70.8533 280.942 71.08 281.555 71.08ZM298.251 75.4C296.518 75.4 295.184 74.8 294.251 73.6C293.344 72.4 292.891 70.6267 292.891 68.28V58.72C292.891 56.5067 293.344 54.7467 294.251 53.44C295.184 52.1333 296.518 51.48 298.251 51.48C299.878 51.48 301.398 52.0933 302.811 53.32V42.6H309.331V75H302.811V73.2C301.291 74.6667 299.771 75.4 298.251 75.4ZM301.091 71.24C301.598 71.24 302.171 71.04 302.811 70.64V56.04C302.171 55.6933 301.611 55.52 301.131 55.52C300.571 55.52 300.144 55.76 299.851 56.24C299.584 56.6933 299.451 57.2933 299.451 58.04V68.68C299.451 69.4533 299.584 70.08 299.851 70.56C300.118 71.0133 300.531 71.24 301.091 71.24Z" fill="#2E2D2D"/>
</svg>
