<svg width="448" height="113" viewBox="0 0 448 113" fill="none" xmlns="http://www.w3.org/2000/svg">
<path d="M2.88 39.12H13.584C17.84 39.12 21.056 39.872 23.232 41.376C25.408 42.88 26.496 45.552 26.496 49.392C26.496 51.984 26.16 54.048 25.488 55.584C24.816 57.12 23.568 58.32 21.744 59.184L27.072 78H18.192L13.92 60.576H11.472V78H2.88V39.12ZM13.872 55.632C15.6 55.632 16.8 55.184 17.472 54.288C18.176 53.36 18.528 51.984 18.528 50.16C18.528 48.4 18.208 47.088 17.568 46.224C16.928 45.328 15.824 44.88 14.256 44.88H11.472V55.632H13.872ZM36.8475 78.48C35.5035 78.48 34.3355 78.16 33.3435 77.52C32.3835 76.848 31.6475 76 31.1355 74.976C30.6555 73.92 30.4155 72.832 30.4155 71.712C30.4155 69.568 30.9595 67.808 32.0475 66.432C33.1355 65.056 34.4315 63.984 35.9355 63.216C37.4715 62.448 39.4395 61.648 41.8395 60.816V58.032C41.8395 57.232 41.7115 56.624 41.4555 56.208C41.2315 55.792 40.8155 55.584 40.2075 55.584C39.5995 55.584 39.1675 55.776 38.9115 56.16C38.6555 56.544 38.5115 57.088 38.4795 57.792L38.2875 59.808L30.9915 59.52C31.1195 56.192 31.9995 53.744 33.6315 52.176C35.2635 50.576 37.6955 49.776 40.9275 49.776C43.6475 49.776 45.7275 50.544 47.1675 52.08C48.6075 53.584 49.3275 55.6 49.3275 58.128V71.088C49.3275 73.904 49.4875 76.208 49.8075 78H42.7995C42.5115 75.856 42.3035 74.544 42.1755 74.064C41.7915 75.344 41.1515 76.4 40.2555 77.232C39.3595 78.064 38.2235 78.48 36.8475 78.48ZM39.6315 73.2C40.4315 73.2 41.1675 72.736 41.8395 71.808V64.224C40.3995 65.056 39.3115 65.936 38.5755 66.864C37.8395 67.76 37.4715 68.864 37.4715 70.176C37.4715 71.104 37.6635 71.84 38.0475 72.384C38.4315 72.928 38.9595 73.2 39.6315 73.2ZM62.9876 78.48C59.9796 78.48 57.6276 77.664 55.9316 76.032C54.2356 74.4 53.3876 72.128 53.3876 69.216V59.04C53.3876 56.096 54.2196 53.824 55.8836 52.224C57.5796 50.592 59.9476 49.776 62.9876 49.776C65.9956 49.776 68.2996 50.48 69.8996 51.888C71.5316 53.296 72.3476 55.376 72.3476 58.128V61.056H64.8116V57.888C64.8116 56.832 64.6516 56.112 64.3316 55.728C64.0436 55.312 63.5956 55.104 62.9876 55.104C62.3796 55.104 61.9316 55.36 61.6436 55.872C61.3876 56.352 61.2596 57.184 61.2596 58.368V69.888C61.2596 71.072 61.4036 71.904 61.6916 72.384C61.9796 72.864 62.4276 73.104 63.0356 73.104C63.6436 73.104 64.0916 72.896 64.3796 72.48C64.6676 72.064 64.8116 71.36 64.8116 70.368V66.672H72.3476V70.032C72.3476 72.784 71.5316 74.88 69.8996 76.32C68.2676 77.76 65.9636 78.48 62.9876 78.48ZM85.4888 78.48C82.4488 78.48 80.0808 77.68 78.3848 76.08C76.6888 74.448 75.8408 72.16 75.8408 69.216V59.04C75.8408 56.096 76.6888 53.824 78.3848 52.224C80.0808 50.592 82.4488 49.776 85.4888 49.776C88.5608 49.776 90.8648 50.56 92.4008 52.128C93.9368 53.696 94.7048 56 94.7048 59.04V64.608H83.5688V69.936C83.5688 71.92 84.2088 72.912 85.4888 72.912C86.8328 72.912 87.5048 72.016 87.5048 70.224V67.296H94.7048V69.984C94.7048 72.768 93.8888 74.88 92.2568 76.32C90.6568 77.76 88.4008 78.48 85.4888 78.48ZM87.5048 60.96V58.176C87.5048 57.152 87.3128 56.432 86.9288 56.016C86.5768 55.568 86.0808 55.344 85.4408 55.344C84.8328 55.344 84.3688 55.584 84.0488 56.064C83.7288 56.544 83.5688 57.392 83.5688 58.608V60.96H87.5048ZM116.957 78.48C115.613 78.48 114.445 78.16 113.453 77.52C112.493 76.848 111.757 76 111.245 74.976C110.765 73.92 110.525 72.832 110.525 71.712C110.525 69.568 111.069 67.808 112.157 66.432C113.245 65.056 114.541 63.984 116.045 63.216C117.581 62.448 119.549 61.648 121.949 60.816V58.032C121.949 57.232 121.821 56.624 121.565 56.208C121.341 55.792 120.925 55.584 120.317 55.584C119.709 55.584 119.277 55.776 119.021 56.16C118.765 56.544 118.621 57.088 118.589 57.792L118.397 59.808L111.101 59.52C111.229 56.192 112.109 53.744 113.741 52.176C115.373 50.576 117.805 49.776 121.037 49.776C123.757 49.776 125.837 50.544 127.277 52.08C128.717 53.584 129.437 55.6 129.437 58.128V71.088C129.437 73.904 129.597 76.208 129.917 78H122.909C122.621 75.856 122.413 74.544 122.285 74.064C121.901 75.344 121.261 76.4 120.365 77.232C119.469 78.064 118.333 78.48 116.957 78.48ZM119.741 73.2C120.541 73.2 121.277 72.736 121.949 71.808V64.224C120.509 65.056 119.421 65.936 118.685 66.864C117.949 67.76 117.581 68.864 117.581 70.176C117.581 71.104 117.773 71.84 118.157 72.384C118.541 72.928 119.069 73.2 119.741 73.2ZM134.073 50.256H141.897V53.04C144.073 50.864 146.297 49.776 148.569 49.776C150.233 49.776 151.497 50.384 152.361 51.6C153.257 52.784 153.705 54.336 153.705 56.256V78H145.929V57.36C145.929 56.656 145.801 56.144 145.545 55.824C145.321 55.472 144.921 55.296 144.345 55.296C143.705 55.296 142.889 55.632 141.897 56.304V78H134.073V50.256ZM164.401 78.48C162.321 78.48 160.721 77.76 159.601 76.32C158.513 74.88 157.969 72.752 157.969 69.936V58.464C157.969 55.808 158.513 53.696 159.601 52.128C160.721 50.56 162.321 49.776 164.401 49.776C166.353 49.776 168.177 50.512 169.873 51.984V39.12H177.697V78H169.873V75.84C168.049 77.6 166.225 78.48 164.401 78.48ZM167.809 73.488C168.417 73.488 169.105 73.248 169.873 72.768V55.248C169.105 54.832 168.433 54.624 167.857 54.624C167.185 54.624 166.673 54.912 166.321 55.488C166.001 56.032 165.841 56.752 165.841 57.648V70.416C165.841 71.344 166.001 72.096 166.321 72.672C166.641 73.216 167.137 73.488 167.809 73.488Z" fill="#2E2D2D"/>
<path d="M193.671 39.12H200.967L203.271 61.776L206.199 39.168H211.911L214.983 61.632L217.335 39.12H224.535L219.879 78H212.391L209.079 54.528L205.959 78H198.375L193.671 39.12ZM228.772 39.12H237.364V78H228.772V39.12ZM243.161 39.12H249.209L257.177 57.84V39.12H264.281V78H258.473L250.505 57.84V78H243.161V39.12Z" fill="#F5D21F"/>
<path d="M417.996 56.3565C425.255 55.1614 431.829 51.9859 437.082 47.1216C443.88 40.8241 447.625 32.5163 447.625 23.623C447.625 16.9348 441.731 11.5515 434.486 11.5515H420.563C420.563 11.3205 420.563 11.1373 420.563 10.9941V2.11078C420.563 0.834735 419.323 0 417.946 0H364.325C362.947 0 361.953 0.834735 361.953 2.11078V11.352C361.953 11.3805 361.834 11.3207 361.835 11.5517H347.783C340.542 11.5517 334.651 16.933 334.651 23.6211C334.651 32.4971 338.397 40.8246 345.199 47.126C350.393 51.9352 357.144 55.1711 364.338 56.3576C366.495 60.9147 369.939 64.8091 374.373 67.6873C376.856 69.2994 379.66 70.5209 382.404 71.3448V85.2511H381.245C375.697 85.2511 371.18 89.3169 371.18 94.4564V96.6894C365.693 96.7324 361.204 100.895 361.204 106.008V110.549C361.204 111.825 362.323 112.975 363.701 112.975H418.57C419.947 112.975 421.061 111.825 421.061 110.549V106.008C421.061 100.895 416.572 96.7324 411.085 96.6894V94.4564C411.085 89.3169 406.574 85.2511 401.026 85.2511H399.862V71.3556C407.843 69.0681 414.428 63.6943 417.996 56.3565ZM420.563 25.4136H432.601C431.926 32.1136 427.297 38.2946 420.563 41.2041V25.4136ZM420.475 46.2103C430.69 42.7911 437.673 33.7749 437.673 23.6266C437.673 22.0341 436.244 20.7927 434.486 20.7927H420.563V16.1722H434.486C438.98 16.1722 442.637 19.4829 442.637 23.623C442.637 31.2819 439.411 38.4585 433.556 43.8829C429.686 47.4652 424.987 49.9698 419.798 51.2684C420.196 49.6069 420.423 47.9118 420.475 46.2103ZM348.726 43.8337C342.866 38.4053 339.639 31.265 339.639 23.623C339.639 19.4829 343.292 16.1722 347.783 16.1722H361.953V20.7929H347.786C346.038 20.7929 344.669 22.0037 344.669 23.623C344.669 28.9849 346.531 34.0236 350.052 38.2493C353.077 41.8798 357.23 44.6523 361.888 46.2075C361.889 46.2498 361.939 49.0007 362.537 51.2523C357.354 49.9445 352.55 47.3749 348.726 43.8337ZM361.953 25.4136V41.1988C355.219 38.2992 350.419 32.1136 349.742 25.4136H361.953V25.4136ZM366.941 4.62072H415.574V9.24145H366.941V4.62072ZM411.002 101.423C413.8 101.423 416.073 103.416 416.073 106.008V108.354H366.192V106.008C366.192 103.416 368.471 101.423 371.269 101.423H411.002ZM401.026 89.8719C403.824 89.8719 406.097 91.8648 406.097 94.4564V96.8028H376.169V94.4564C376.169 91.8646 378.447 89.8719 381.245 89.8719H401.026ZM387.392 85.2511V72.3504C388.639 72.4978 389.89 72.5765 391.158 72.5765C392.414 72.5765 393.627 72.4989 394.874 72.3554V85.2509H387.392V85.2511ZM391.18 67.956C381.177 67.956 372.035 62.1418 368.461 53.4877C368.442 53.4438 368.461 53.4003 368.44 53.3578C367.815 51.8253 366.94 47.9683 366.94 45.4303V13.8619H415.574V45.4303C415.574 47.8756 415.013 50.5118 413.937 53.4875C410.152 62.279 401.217 67.956 391.18 67.956Z" fill="#2E2D2D"/>
<path d="M404.271 35.1847C403.724 34.7606 403.043 34.2323 402.847 33.9188C402.626 33.5657 402.467 32.7572 402.327 32.0436C401.981 30.285 401.55 28.0964 399.416 26.9529C397.333 25.8364 395.104 26.5639 393.313 27.1489C392.547 27.3991 391.678 27.6826 391.182 27.6826C390.685 27.6826 389.817 27.3991 389.051 27.1489C387.26 26.5644 385.031 25.836 382.947 26.9529C380.813 28.0968 380.382 30.2853 380.037 32.0443C379.896 32.7577 379.737 33.5662 379.517 33.919C379.321 34.2328 378.64 34.7608 378.093 35.1851C376.67 36.289 374.721 37.8005 374.721 40.1584C374.721 42.5163 376.67 44.0283 378.093 45.1318C378.64 45.5561 379.321 46.0843 379.517 46.3977C379.737 46.7507 379.896 47.5592 380.037 48.2728C380.383 50.0314 380.813 52.2201 382.947 53.3637C385.03 54.48 387.26 53.7525 389.051 53.1676C389.817 52.9173 390.685 52.6338 391.182 52.6338C391.678 52.6338 392.547 52.9173 393.313 53.1673C394.422 53.5294 395.699 53.9465 397.005 53.9465C397.808 53.9465 398.623 53.7887 399.416 53.3635C401.551 52.2196 401.981 50.0312 402.327 48.2723C402.468 47.559 402.626 46.7503 402.847 46.3974C403.043 46.0837 403.724 45.5559 404.271 45.1315C405.694 44.0276 407.643 42.5159 407.643 40.158C407.643 37.8001 405.694 36.2886 404.271 35.1847ZM401.068 41.5889C400.133 42.3144 399.166 43.0642 398.529 44.0837C397.875 45.1318 397.633 46.3604 397.42 47.444C397.305 48.0265 397.121 48.965 396.911 49.3242C396.479 49.3019 395.549 48.9987 394.971 48.8096C393.827 48.4363 392.532 48.0133 391.182 48.0133C389.832 48.0133 388.536 48.4363 387.393 48.8096C386.814 48.9983 385.885 49.3017 385.452 49.3242C385.243 48.9647 385.059 48.0265 384.944 47.444C384.731 46.3601 384.489 45.1318 383.834 44.0837C383.198 43.0647 382.231 42.3144 381.296 41.5889C380.765 41.1776 379.894 40.502 379.723 40.1582C379.894 39.8144 380.765 39.1386 381.296 38.7275C382.231 38.002 383.198 37.2522 383.835 36.2328C384.489 35.1847 384.731 33.9561 384.944 32.8726C385.059 32.2901 385.243 31.3517 385.452 30.9925C385.885 31.0147 386.814 31.3181 387.393 31.507C388.536 31.8804 389.832 32.3034 391.182 32.3034C392.532 32.3034 393.827 31.8804 394.971 31.507C395.549 31.3184 396.478 31.0147 396.911 30.9925C397.12 31.3519 397.305 32.2901 397.42 32.8726C397.633 33.9565 397.875 35.1849 398.529 36.233C399.166 37.252 400.133 38.0022 401.068 38.7275C401.598 39.1388 402.469 39.8144 402.641 40.1582C402.469 40.502 401.598 41.1776 401.068 41.5889Z" fill="#F5D21F"/>
</svg>
