<svg width="509" height="105" viewBox="0 0 509 105" fill="none" xmlns="http://www.w3.org/2000/svg">
<rect width="509" height="105" fill="white"/>
<path d="M172.863 32.5H170.907L171.414 34.3891L173.123 40.7504L172.773 41.7385L162.586 70.4992L161.877 72.5H164H180.431H181.489L181.844 71.5028L186.496 58.4267H190.725L190.806 58.7385L190.806 58.7385L190.809 58.7488L194.205 71.3891L194.503 72.5H195.653H206.449H209.636H210.099H212.053H256.253H258.21L257.702 70.6102L247.745 33.6102L247.446 32.5H246.297H231.851H229.893L230.403 34.3909L232.266 41.2921L232.019 41.5902L210.683 67.3823L208.284 58.4267H210.53H211.588L211.943 57.4298L218.303 39.5695L218.461 39.126L218.337 38.6719L216.956 33.6055L216.654 32.5H215.508H172.863ZM196.859 47.5187L196.649 48.1086H190.157L192.048 42.8181H198.533L196.859 47.5187ZM237.865 62.1819H233.617L236.825 58.3205L237.865 62.1819ZM265.203 32.5H263.247L263.754 34.3891L265.463 40.7512L265.113 41.7378L257.344 63.641L257.188 64.0808L257.309 64.5315L259.15 71.3891L259.449 72.5H260.599H297.95H298H299.01H300.122H316.553H317.612L317.967 71.5023L329.964 37.747L330.771 40.7504L330.421 41.7385L320.234 70.4992L319.525 72.5H321.648H338.079H339.138L339.492 71.5023L342.812 62.1607L343.035 63.0007H342.998L343.508 64.8918L345.264 71.3911L345.563 72.5H346.712H363.459H364.518L364.872 71.5023L376.851 37.8006L377.643 40.7512L377.293 41.7378L369.524 63.641L369.368 64.0808L369.489 64.5315L371.33 71.389L371.629 72.5H372.779H410.13H411.19L411.544 71.5004L414.134 64.1823L414.842 62.1819H414.757L417.241 55.1763L417.397 54.7377L417.277 54.2881L415.924 49.2217L415.627 48.1086H414.475H397.641H395.688L396.192 49.996L398.029 56.865L396.149 62.1819H389.668L396.57 42.8181H417.41H418.47L418.824 41.8185L421.414 34.5004L422.122 32.5H420H378.735H377.383H376.61H375.427H363.747H362.687L362.333 33.4992L356.825 49.0498L352.678 33.6109L352.38 32.5H351.229H331.829H330.511H329.704H328.555H309.942H308.985H307.82H307.029H265.203ZM300.54 62.1819H277.498L284.39 42.8181H294.066L291.271 50.6392L289.822 54.6962L293.477 52.4167L305.132 45.1497L305.58 44.87L305.754 44.3707L306.644 41.8185L306.646 41.8119L308.286 37.1789L309.245 40.7504L308.895 41.7385L301.654 62.1819H300.54Z" fill="#F5D21F" stroke="#2E2D2D" stroke-width="3"/>
<path d="M78.3841 31H123.538L125 36.751L118.267 57.0249H91.6986L86.3972 73H69L79.7856 40.3527L82.1926 46.1037L80.3341 38.7842L78.3841 31ZM105.287 46.917L107.816 39.3071H97.5789L94.4407 48.7178H111.229L105.287 46.917Z" fill="#F5D21F"/>
<path d="M80.3841 32H125.538L127 37.751L120.267 58.0249H93.6986L88.3972 74H71L81.7856 41.3527L84.1926 47.1037L82.3341 39.7842L80.3841 32ZM107.287 47.917L109.816 40.3071H99.5789L96.4407 49.7178H113.229L107.287 47.917Z" fill="#2E2D2D"/>
<path d="M120.384 31H165.538L167 36.751L160.267 57.0249H133.699L128.397 73H111L121.786 40.3527L124.193 46.1037L122.334 38.7842L120.384 31ZM147.287 46.917L149.816 39.3071H139.579L136.441 48.7178H153.229L147.287 46.917Z" fill="#F5D21F"/>
<path d="M122.384 32H167.538L169 37.751L162.267 58.0249H135.699L130.397 74H113L123.786 41.3527L126.193 47.1037L124.334 39.7842L122.384 32ZM149.287 47.917L151.816 40.3071H141.579L138.441 49.7178H155.229L149.287 47.917Z" fill="#2E2D2D"/>
</svg>
