<svg width="93" height="106" viewBox="0 0 93 106" fill="none" xmlns="http://www.w3.org/2000/svg">
<mask id="path-1-inside-1_12:534" fill="white">
<path d="M29.2476 96C64.3435 96 83.5363 62.532 83.5363 33.5096C83.5363 32.5592 83.5195 31.613 83.4822 30.6708C87.2167 27.5604 90.4397 23.7092 93 19.2978C89.5811 21.0473 85.9021 22.2249 82.0426 22.7558C85.9821 20.0368 89.0063 15.7353 90.4332 10.608C86.6877 13.1655 82.5901 14.9685 78.3172 15.9391C74.8353 11.67 69.8783 9 64.3895 9C53.8525 9 45.3078 18.8358 45.3078 30.9599C45.3078 32.6836 45.4755 34.3596 45.8029 35.9678C29.9447 35.0493 15.8828 26.3097 6.47182 13.0207C4.77681 16.3725 3.88527 20.1818 3.88823 24.0597C3.88823 31.6796 7.25665 38.4062 12.3792 42.3417C9.34915 42.2351 6.38561 41.2931 3.73777 39.5946C3.73493 39.6869 3.73493 39.7767 3.73493 39.8752C3.73493 50.5116 10.3118 59.3924 19.0425 61.4047C17.4028 61.9187 15.7107 62.1786 14.0112 62.1774C12.7839 62.1774 11.5878 62.0385 10.4253 61.7816C12.8544 70.5081 19.8982 76.8585 28.2495 77.036C21.7189 82.9278 13.4924 86.4372 4.55133 86.4372C3.03034 86.4387 1.5106 86.3371 0 86.1329C8.44448 92.3632 18.4715 95.9985 29.2485 95.9985"/>
</mask>
<path d="M29.2476 96C64.3435 96 83.5363 62.532 83.5363 33.5096C83.5363 32.5592 83.5195 31.613 83.4822 30.6708C87.2167 27.5604 90.4397 23.7092 93 19.2978C89.5811 21.0473 85.9021 22.2249 82.0426 22.7558C85.9821 20.0368 89.0063 15.7353 90.4332 10.608C86.6877 13.1655 82.5901 14.9685 78.3172 15.9391C74.8353 11.67 69.8783 9 64.3895 9C53.8525 9 45.3078 18.8358 45.3078 30.9599C45.3078 32.6836 45.4755 34.3596 45.8029 35.9678C29.9447 35.0493 15.8828 26.3097 6.47182 13.0207C4.77681 16.3725 3.88527 20.1818 3.88823 24.0597C3.88823 31.6796 7.25665 38.4062 12.3792 42.3417C9.34915 42.2351 6.38561 41.2931 3.73777 39.5946C3.73493 39.6869 3.73493 39.7767 3.73493 39.8752C3.73493 50.5116 10.3118 59.3924 19.0425 61.4047C17.4028 61.9187 15.7107 62.1786 14.0112 62.1774C12.7839 62.1774 11.5878 62.0385 10.4253 61.7816C12.8544 70.5081 19.8982 76.8585 28.2495 77.036C21.7189 82.9278 13.4924 86.4372 4.55133 86.4372C3.03034 86.4387 1.5106 86.3371 0 86.1329C8.44448 92.3632 18.4715 95.9985 29.2485 95.9985" fill="#F5D21F"/>
<path d="M83.4822 30.6708L81.5623 28.3657L80.4262 29.3119L80.4846 30.7893L83.4822 30.6708ZM93 19.2978L95.5947 20.8036L100.716 11.9791L91.6333 16.6271L93 19.2978ZM82.0426 22.7558L80.3385 20.2868L82.4515 25.7278L82.0426 22.7558ZM90.4332 10.608L93.3234 11.4123L95.526 3.49783L88.7415 8.13046L90.4332 10.608ZM78.3172 15.9391L75.9923 17.8352L77.1679 19.2766L78.9817 18.8646L78.3172 15.9391ZM45.8029 35.9678L45.6294 38.9628L49.52 39.1881L48.7426 35.3694L45.8029 35.9678ZM6.47182 13.0207L8.92007 11.2869L6.04202 7.22287L3.79467 11.6669L6.47182 13.0207ZM3.88823 24.0597L6.88823 24.0597L6.88823 24.0574L3.88823 24.0597ZM12.3792 42.3417L12.2738 45.3398L21.6344 45.6689L14.2069 39.9627L12.3792 42.3417ZM3.73777 39.5946L5.3575 37.0695L0.90186 34.2115L0.739185 39.5024L3.73777 39.5946ZM19.0425 61.4047L19.9399 64.2673L30.4818 60.9626L19.7163 58.4813L19.0425 61.4047ZM14.0112 62.1774L14.0133 59.1774H14.0112L14.0112 62.1774ZM10.4253 61.7816L11.0725 58.8523L6.19582 57.7747L7.53515 62.5861L10.4253 61.7816ZM28.2495 77.036L30.2591 79.2634L35.8744 74.1973L28.3132 74.0366L28.2495 77.036ZM4.55133 86.4372L4.55133 83.4372L4.54839 83.4372L4.55133 86.4372ZM0 86.1329L0.401818 83.1599L-1.78109 88.547L0 86.1329ZM29.2476 99C47.8641 99 62.2693 90.0842 71.9348 77.4621C81.5519 64.9032 86.5363 48.6272 86.5363 33.5096H80.5363C80.5363 47.4144 75.9243 62.3836 67.1711 73.8143C58.4662 85.1818 45.7269 93 29.2476 93V99ZM86.5363 33.5096C86.5363 32.5239 86.5189 31.538 86.4799 30.5524L80.4846 30.7893C80.5201 31.688 80.5363 32.5945 80.5363 33.5096H86.5363ZM85.4022 32.976C89.4198 29.6297 92.8668 25.5038 95.5947 20.8036L90.4053 17.7919C88.0126 21.9146 85.0136 25.4911 81.5623 28.3657L85.4022 32.976ZM91.6333 16.6271C88.5077 18.2266 85.1519 19.2998 81.6338 19.7838L82.4515 25.7278C86.6524 25.1499 90.6545 23.868 94.3667 21.9684L91.6333 16.6271ZM83.7467 25.2248C88.3069 22.0774 91.7225 17.1645 93.3234 11.4123L87.5431 9.80364C86.29 14.3061 83.6573 17.9962 80.3385 20.2868L83.7467 25.2248ZM88.7415 8.13046C85.2961 10.4831 81.5452 12.1294 77.6526 13.0136L78.9817 18.8646C83.635 17.8076 88.0793 15.848 92.125 13.0855L88.7415 8.13046ZM80.642 14.043C76.6692 9.17202 70.8975 6 64.3895 6V12C68.8592 12 73.0014 14.168 75.9923 17.8352L80.642 14.043ZM64.3895 6C51.8136 6 42.3078 17.5887 42.3078 30.9599H48.3078C48.3078 20.0828 55.8914 12 64.3895 12V6ZM42.3078 30.9599C42.3078 32.8781 42.4944 34.7549 42.8632 36.5663L48.7426 35.3694C48.4566 33.9643 48.3078 32.489 48.3078 30.9599H42.3078ZM45.9763 32.9728C31.1549 32.1144 17.8815 23.9412 8.92007 11.2869L4.02356 14.7545C13.884 28.6783 28.7345 37.9843 45.6294 38.9628L45.9763 32.9728ZM3.79467 11.6669C1.88004 15.4529 0.884924 19.7288 0.888232 24.062L6.88823 24.0574C6.88562 20.6348 7.67359 17.292 9.14896 14.3746L3.79467 11.6669ZM0.888232 24.0597C0.888232 32.5435 4.63745 40.1771 10.5515 44.7207L14.2069 39.9627C9.87584 36.6353 6.88823 30.8157 6.88823 24.0597H0.888232ZM12.4846 39.3435C10.0134 39.2566 7.56995 38.4886 5.3575 37.0695L2.11803 42.1198C5.20127 44.0975 8.68493 45.2136 12.2738 45.3398L12.4846 39.3435ZM0.739185 39.5024C0.734695 39.6485 0.734933 39.7846 0.734933 39.8752H6.73493C6.73493 39.7688 6.73517 39.7252 6.73635 39.6868L0.739185 39.5024ZM0.734933 39.8752C0.734933 51.6543 8.04307 61.9481 18.3687 64.328L19.7163 58.4813C12.5806 56.8366 6.73493 49.3689 6.73493 39.8752H0.734933ZM18.1451 58.542C16.7932 58.9658 15.4043 59.1784 14.0133 59.1774L14.0092 65.1774C16.0172 65.1788 18.0124 64.8715 19.9399 64.2673L18.1451 58.542ZM14.0112 59.1774C13.0121 59.1774 12.033 59.0645 11.0725 58.8523L9.77799 64.7109C11.1425 65.0124 12.5557 65.1774 14.0112 65.1774L14.0112 59.1774ZM7.53515 62.5861C10.243 72.3138 18.2476 79.8241 28.1858 80.0353L28.3132 74.0366C21.5489 73.8929 15.4658 68.7025 13.3154 60.9771L7.53515 62.5861ZM26.2399 74.8085C20.2043 80.2538 12.6776 83.4372 4.55133 83.4372V89.4372C14.3072 89.4372 23.2335 85.6018 30.2591 79.2634L26.2399 74.8085ZM4.54839 83.4372C3.16307 83.4385 1.77856 83.346 0.401818 83.1599L-0.401818 89.1059C1.24265 89.3281 2.89761 89.4388 4.55427 89.4372L4.54839 83.4372ZM-1.78109 88.547C7.13335 95.124 17.7757 98.9985 29.2485 98.9985V92.9985C19.1673 92.9985 9.7556 89.6024 1.78109 83.7188L-1.78109 88.547Z" fill="#2E2D2D" mask="url(#path-1-inside-1_12:534)"/>
</svg>
