<?xml version="1.0" encoding="UTF-8"?>
<!-- Generator: Adobe Illustrator 25.2.1, SVG Export Plug-In . SVG Version: 6.00 Build 0)  -->
<svg xmlns="http://www.w3.org/2000/svg" xmlns:xlink="http://www.w3.org/1999/xlink" version="1.1" id="Capa_1" x="0px" y="0px" viewBox="0 0 511.993 511.993" style="enable-background:new 0 0 511.993 511.993;" xml:space="preserve" width="512" height="512">
<g>
	<g>
		<g>
			<g>
				<g>
					<g>
						<path style="fill-rule:evenodd;clip-rule:evenodd;fill:#2F3F9A;" d="M120.395,130.689c3.814,1.01,9.15,0.482,13.05,1.421        c-4.018,12.82,7.269,17.297,7.368,29.774c0.06,8.112-4.386,12.867-4.252,20.691c0.192,12.012,9.245,18.569,12.193,29.487        c2.495,9.268-1.907,17.464-8.513,21.264c-4.338,2.498-11.715,3.501-17.575,1.136c-6.53-2.635-13.8-12.744-11.057-23.815        c0.711-2.864,2.044-5.913,3.401-8.789c1.335-2.831,3.249-5.382,3.119-8.789c-0.127-3.325-2.248-5.373-3.967-7.948        c-3.782-5.637-9.301-15.117-5.672-24.941c2.196-5.955,8.008-10.227,9.919-16.731c1.105-3.747,0.647-7.871,1.138-12.188        C119.756,130.99,120.068,130.828,120.395,130.689z"/>
					</g>
					<g>
						<path style="fill-rule:evenodd;clip-rule:evenodd;fill:#BC7E6D;" d="M122.796,153.222l-0.153,6.303        c-3.605,1.622-15.464,13.847-18.527,11.801c-1.265-0.846-3.281-2.577-3.93-4.257c-0.477-1.207,2.769-24.508,2.769-24.508        c-1.029,0.213-2.581,0.151-4.122-0.403c-3.14-1.135-6.242-5.663-3.478-7.971c1.402-1.186,2.486-0.89,3.858-0.989        c-0.102-6.68,1.013-13.74,9.834-17.987c7.216-3.471,17.601-0.482,21.924,7.058c1.084,1.891,2.011,4.847,2.363,7.095        c0.531,3.355,0.297,8.172-0.658,12.03C131.501,146.208,128.769,151.45,122.796,153.222"/>
					</g>
					<g>
						<g>
							<g>
								<g>
									<path style="fill-rule:evenodd;clip-rule:evenodd;fill:#FFFFFF;" d="M114.415,132.563c3.863-4.057,7.422-0.85,7.422-0.85           s-0.973,1.504-3.564,1.923C116.354,133.942,114.415,132.563,114.415,132.563"/>
								</g>
								<g>
									<path style="fill-rule:evenodd;clip-rule:evenodd;fill:#2F3F9A;" d="M121.836,131.713c0,0-1.722-1.566-4.111-1.122           c-0.074,0.188-0.241,0.556-0.25,0.769c-0.053,0.936,0.619,1.77,1.58,2.106           C121.056,132.911,121.836,131.713,121.836,131.713"/>
								</g>
							</g>
							<g>
								<path style="fill:#2F3F9A;" d="M122.054,129.206c-1.395-0.725-5.387-1.457-8.184,1.138l-0.85-0.906          c3.026-2.808,7.44-2.472,9.609-1.335L122.054,129.206z"/>
							</g>
						</g>
						<g>
							<g>
								<g>
									<path style="fill-rule:evenodd;clip-rule:evenodd;fill:#FFFFFF;" d="M127.796,131.887c3.582-3.76,6.891-0.781,6.891-0.781           s-0.904,1.393-3.309,1.782C129.585,133.175,127.796,131.887,127.796,131.887"/>
								</g>
								<g>
									<path style="fill-rule:evenodd;clip-rule:evenodd;fill:#2F3F9A;" d="M134.687,131.106c0,0-1.603-1.457-3.828-1.047           c-0.056,0.181-0.213,0.524-0.223,0.711c-0.046,0.878,0.573,1.643,1.464,1.953           C133.964,132.216,134.687,131.106,134.687,131.106"/>
								</g>
							</g>
							<g>
								<path style="fill:#2F3F9A;" d="M134.865,128.817c-1.282-0.677-4.966-1.344-7.549,1.045l-0.85-0.908          c2.832-2.611,6.947-2.303,8.972-1.237L134.865,128.817z"/>
							</g>
						</g>
						<g style="opacity:0.6;">
							<g>
								<path style="fill-rule:evenodd;clip-rule:evenodd;fill:#6B3F20;" d="M125.747,130.693c0.644-0.107,2.194,5.915,2.016,6.529          c-0.222,0.792-3.008,1.112-3.202,0.788C123.996,137.079,124.765,130.858,125.747,130.693"/>
							</g>
							<g>
								<path style="fill:#6B3F20;" d="M127.221,144.202c-3.485,0.714-6.166-1.928-7.176-4.69l1.163-0.433          c0.837,2.287,3.001,4.474,5.767,3.904L127.221,144.202z"/>
							</g>
							<g>
								<path style="fill-rule:evenodd;clip-rule:evenodd;fill:#6B3F20;" d="M111.442,147.3c2.739,4.206,6.826,6.523,11.354,5.922          l-0.153,6.303C118.263,159.284,111.201,155.84,111.442,147.3"/>
							</g>
							<g>
								<path style="fill:#6B3F20;" d="M117.244,136.416c0.922,1.511,0.433,3.48-1.071,4.391c-1.513,0.918-3.476,0.436-4.391-1.071          c-0.915-1.515-0.438-3.485,1.073-4.4C114.366,134.419,116.329,134.906,117.244,136.416"/>
							</g>
							<g>
								<path style="fill:#6B3F20;" d="M130.423,139.897c0.519,0.839,1.36,1.346,2.257,1.487c0.48-1.962,0.778-4.175,0.887-6.312          c-0.7-0.088-1.425,0.035-2.062,0.429C129.992,136.416,129.51,138.377,130.423,139.897"/>
							</g>
						</g>
					</g>
					<g>
						<path style="fill-rule:evenodd;clip-rule:evenodd;fill:#2F3F9A;" d="M132.525,125.909c-1.893-0.306-7.709-3.334-11.768-9.537        c-1.566,4.926-14.25,13.49-19.466,14.903c4.833,6.133,7.41,12.758,6.407,19.695c-1.045,7.206-7.338,12.067-4.384,20.21        c3.161,8.733,15.434,12.086,14.681,23.75c-0.357,5.582-3.545,10.522-3.517,16.118c0.033,8.056,6.717,11.49,9.412,17.909        c5.116,12.141-0.014,25.36-9.906,29.527c-6.388,2.688-12.839,2.09-17.767-0.079c-5.376-2.377-11.775-8.219-13.657-17.258        c-0.505-2.414-0.522-5.911-0.341-8.17c0.139-1.81,1.404-5.997,0.364-7.797c-1.054-1.809-3.969-0.776-6.4-1.663        c-8.284-2.984-13.821-17.343-9.419-25.893c2.656-5.139,10.156-9.18,11.015-14.778c0.538-3.494-0.651-8.08-1.464-11.984        c-0.839-4.05-1.967-8.008-1.735-11.898c0.306-5.23,2.521-10.241,6.233-13.96c1.267-1.272,3.031-2.046,3.976-3.541        c1.631-2.57,1.307-6.671,1.434-10.174c0.308-8.249,2.245-15.508,9.841-19.755c8.003-4.463,15.369-0.987,15.369-0.987        s2.618-1.464,4.553-1.634C124.515,108.169,133.901,114.228,132.525,125.909z"/>
					</g>
				</g>
				<g>
					<g>
						<g>
							<path style="fill-rule:evenodd;clip-rule:evenodd;fill:#BC7E6D;" d="M218.342,311.946         c-11.613-15.61-16.264-26.528-41.201-50.136c-8.475-4.586-16.614-12.913-27.316-21.849l1.125-1.244         c-2.656-2.269-9.238-6.256-11.963-8.541C124,217.574,124,204.974,124,190.513c0.989-0.943,8.999-2.662,10.269-3.012         c18.604-5.074,42.217-12.709,56.567-37.852c8.469-14.834,8.705-22.274,9.213-36.088c0.019-0.005,0.047,0,0.067,0         c0.243-7.049-0.077-12.366-0.482-17.526c-0.155-2.329-0.343-4.703-0.549-7.131c-0.084-1.088-0.151-2.202-0.206-3.347         c-0.111-2.127-0.496-5.488,0.032-6.931c0.352-0.925,1.939-1.89,2.859-2.777c0.95-0.914,2.85-2.398,1.984-3.672         c-0.711-1.034-4.396,0.795-5.452,1.231c0.352-1.471,1.124-2.736,1.624-3.978c0.433-1.04,1.826-3.115,0.767-3.849         c-1.416-0.988-4.337,2.647-5.313,3.947c0.681-2.872,3.411-5.416,1.724-6.799c-2.465-1.202-5.598,4.311-7.857,6.07         c0.533-2.715,3.786-7.089,1.962-8.35c-1.019-0.702-2.938,1.407-3.96,2.511c-3.309,3.558-5.531,8.394-7.892,12.92         c-1.235-1.389-3.216-3.559-4.173-2.914c-1.23,0.826,0.023,4.002,0.962,5.983c0.818,1.724,2.597,4.126,2.797,5.926         c6.652,59.333-33.454,70.346-44.103,72.522c-7.192,1.471-15.58,2.417-23.768,3.079c-2.248,0.183-6.391,0.895-7.922,0.047         c-1.986-1.103-3.997-4.525-5.651-7.051c-4.783-7.301-6.965-14.693-8.548-21.808c-2.366-10.598-6.789-32.532,3.371-54.462         c0.009,0.005,0.019,0.014,0.028,0.019c8.228-15.447,17.077-20.831,17.897-21.684c1.26-1.305,4.004-2.346,5.658-3.31         c1.895-1.108,4.713-3.024,4.168-4.397c-0.429-1.073-3.295-0.409-5.086,0.056c0.598-5.074,1.497-10.321,0.776-15.126         c-0.225-1.489-0.619-4.311-1.851-4.305c-2.227,0.009-2.007,5.458-3.098,7.997c-0.869-2.725-0.348-9.044-3.059-9.447         c-2.178,0.191-1.36,3.833-2.421,6.586c-0.058-1.62-0.422-6.272-2.155-6.255c-1.286,0.008-1.305,2.507-1.541,3.613         c-0.28,1.305-0.366,2.787-0.906,4.199c-0.616-0.951-2.628-4.547-3.795-4.091c-1.436,0.56-0.711,2.859-0.445,4.147         c0.264,1.258,1.031,2.947,0.79,3.908c-0.373,1.498-2.586,4.053-3.879,5.747c-4.206,5.514-36.007,36.393-35.741,70.529         c0.07,8.791,0.107,17.485,1.124,25.842c3.172,26.032,16.233,49.81,26.66,75.076c1.65,4.009,3.126,8.207,4.293,12.563         c2.241,8.388,3.527,14.373,0.447,23.347c-3.631,10.591-7.5,21.857-5.475,32.184c0.959,4.873,3.603,10.045,5.695,14.966         c0.964,2.268,1.952,4.52,2.944,6.768c0.195,0.442,1.091,0.455,1.286,0.897c0.164,0.372-0.371,1.172-0.207,1.543         c3.004,6.785,5.993,13.558,8.454,20.602c1.81,5.188,2.889,10.557,4.493,15.67c-0.09,0.19,0.046,0.362-0.118,0.565         c-6.895-11.252-18.296-22.385-28.938-34.805c-7.417-8.657-14.192-17.258-21.966-26.069c-2.915-3.302-5.943-7.487-9.37-8.545         c-3.425-1.057-12.072,0.097-16.414,1.184c-2.512,0.63-5.274,1.01-7.697,1.854c-2.368,0.839-5.413,1.742-6.451,4.477         c1.23,2.644,4.308,2.901,6.502,3.443c6.814,1.694,13.981,2.989,21.06,4.986c8.531,22.462,15.826,44.831,29.564,67.167         c8.689,14.132,24.339,37.022,45.016,42.796c7.771,2.162,17.095,2.63,23.326-6.713c5.999-8.988,5.691-21.542,5.538-30.164         c-0.341-19.815-2.718-39.244-6.356-58.189c-1.849-9.676-4.704-19.121-6.242-28.544         c15.974,25.069,56.006,55.438,56.469,56.008c-14.034,10.958-21.197,24.371-27.596,36.962         c-2.199,4.308-4.138,8.717-6.092,13.05c-6.731,14.924-12.586,30.433-18.261,45.899c-0.887,2.433-1.874,4.836-1.594,6.875         c0.378,2.769,2.408,5.772,4.801,8.596c41.197,48.494,18.034,7.674,17.675,6.555c-2.98-9.234-2.412-16.006,3.531-23.331         c7.574-9.34,14.922-18.236,22.589-27.62c7.268-8.895,14.419-18.395,21.595-27.712c7.29-9.458,13.685-18.916,16.762-28.783         C227.979,334.269,225.034,320.944,218.342,311.946z"/>
						</g>
						<g style="opacity:0.6;">
							<g>
								<path style="fill-rule:evenodd;clip-rule:evenodd;fill:#6B3F20;" d="M221.151,327.292c1.316,1.147,0.825,3.167-0.946,4.108          C218.76,330.337,218.597,327.216,221.151,327.292z"/>
							</g>
							<g>
								<path style="fill-rule:evenodd;clip-rule:evenodd;fill:#6B3F20;" d="M220.507,334.809c1.712,2.361,0.125,4.852-0.426,6.752          c-0.561,1.93-0.816,4.697-3.133,5.999c-2.011-2.039-0.121-9.491,1.307-12.125          C218.481,335.001,219.758,334.758,220.507,334.809z"/>
							</g>
						</g>
						<g style="opacity:0.6;">
							<g>
								<path style="fill-rule:evenodd;clip-rule:evenodd;fill:#6B3F20;" d="M138.728,372.434c-2.776-0.737-2.73-7.125-2.349-11.381          c0.16-1.745,0.551-3.913,1.216-4.518c0.197-0.436,0.869-0.547,1.142-0.542C142.477,356.054,141.378,371.528,138.728,372.434          z"/>
							</g>
							<g>
								<path style="fill-rule:evenodd;clip-rule:evenodd;fill:#6B3F20;" d="M141.165,378.437c1.159,1.441,1.472,7.056-0.7,7.642          C138.035,385.799,137.129,377.631,141.165,378.437z"/>
							</g>
						</g>
						<g>
							<g>
								<path style="fill-rule:evenodd;clip-rule:evenodd;fill:#FFFFFF;" d="M64.806,120.077c-2.769-0.744-2.722-7.13-2.345-11.393          c0.158-1.745,0.556-3.911,1.214-4.511c0.197-0.44,0.869-0.554,1.145-0.549C68.558,103.686,67.459,119.166,64.806,120.077z"/>
							</g>
							<g>
								<path style="fill-rule:evenodd;clip-rule:evenodd;fill:#FFFFFF;" d="M67.26,126.073c1.145,1.437,1.458,7.053-0.714,7.642          C64.111,133.427,63.21,125.267,67.26,126.073z"/>
							</g>
						</g>
					</g>
					<g>
						<g>
							<path style="fill:#C4240A;" d="M158.323,244.953c-3.11-2.91-6.284-5.753-9.57-8.508         c-9.757-8.158-20.509-16.298-20.416-34.019c2.366-3.87,7.841-7.936,6.523-14.463c-0.044-0.206-0.127-0.378-0.188-0.568         c-0.927-2.889-3.907-4.076-5.769-6.515c-1.279-7.102-2.419-14.345-3.184-21.957c-1.469,0.202-2.303,0.311-3.809,0.487         c0.181,2.662,1.355,16.032,1.038,17.496c-0.41,1.893-4.101,4.312-5.39,6.238c-1.974,2.968-2.294,5.582-3.68,8.506         c-3.656-4.096-6.733-8.768-15.026-8.223c-0.707-9.299-0.266-20.469-1.054-29.487c-0.09-0.153-0.197-0.315-0.301-0.468         c-0.901-1.386-1.692-2.776-2.424-4.161c-1.23-2.482-1.775-3.626-1.775-3.626c-0.283,18.849-5.987,36.702-20.647,41.184         c4.164,9.734,8.677,19.475,12.795,29.438c1.65,4.009,3.126,8.207,4.293,12.563c2.241,8.388,3.527,14.373,0.447,23.347         c-3.631,10.591-7.5,21.857-5.475,32.184c0.959,4.873,3.603,10.045,5.695,14.966c0.964,2.267,1.952,4.52,2.944,6.768         c0.207,0.47,0.987,0.118,1.195,0.587c0.152,0.344-0.268,1.509-0.116,1.853c1.446,3.267,2.887,6.532,4.267,9.823         c15.42-4.402,28.787-10.853,40.533-18.927c0.076-0.052,1.075-1.996,1.075-1.996l2.367-0.442         c1.436-1.051,2.849-2.128,4.241-3.231c11.157-8.853,21.672-20.522,30.228-31.989c-3.018-3.235-6.306-6.088-9.64-8.901         c-0.49-0.414-1.747,0.141-2.239-0.271c-0.502-0.422-0.239-1.812-0.741-2.235C162.43,248.638,160.346,246.849,158.323,244.953         z"/>
						</g>
						<g>
							<g>
								<g>
									<path style="fill:#8C0C06;" d="M128.426,205.099c-0.051-0.871-0.093-1.754-0.088-2.674           c0.436-0.721,0.985-1.444,1.576-2.194c-4.111,2.437-9.315,3.786-13.773,5.878           C120.427,206.645,124.876,206.232,128.426,205.099z"/>
								</g>
								<g>
									<g>
										<path style="fill-rule:evenodd;clip-rule:evenodd;fill:#FFFFFF;" d="M161.152,262.361            c0.727-4.154,2.621-6.678,5.385-8.786c0.301-0.231,0.626-0.45,0.964-0.665c-0.991-0.836-1.984-1.672-2.977-2.509            c-3.576,2.963-6.442,7.084-7.06,11.678c-6.715,1.031-10.207,5.288-11.905,11.34c-9.347-0.545-14.991,5.037-16.449,13.325            c-8.784-1.596-12.529,4.289-15.019,9.922c-6.826-2.185-10.872,2.797-12.475,7.655c-3.382-1.116-6.449-0.136-8.261,1.811            c0.359,0.814,0.718,1.628,1.077,2.441c0.737-1.09,1.778-1.838,3.21-1.981c1.349-0.141,2.565,0.223,3.684,1.131            c0.027,3.448,0.506,7.166,2.126,9.213c2.284-0.735,4.531-1.507,6.724-2.333c-0.184-2.16-1.412-4.624-2.327-5.746            c-1.098-1.337-3.033-1.986-3.119-3.399c0.832-3.869,4.449-7.095,9.361-5.107c0.47,4.242,1.862,10.565,6.259,9.953            c0.572-0.269,1.124-0.558,1.689-0.834c0.265-0.226,0.473-0.453,0.551-0.612c2.139-4.18-3.01-8.937-4.819-11.055            c1.001-4.861,5.334-9.085,11.34-7.09c0.38,3.975,1.293,9.628,3.762,12.838c1.014-0.616,2.024-1.237,3.015-1.876            c-1.934-1.832-3.052-6.936-3.372-9.544c0.334-0.042,0.505,0.065,0.563,0.285c1.284,0.663,2.674,1.494,3.689,2.551            c1.02,1.066,2.125,2.913,2.46,4.499c0.075-0.052,0.155-0.1,0.23-0.152c1.085-0.746,2.15-1.514,3.21-2.29            c-1.142-3.197-4.562-6.392-6.75-7.722c-1.221-0.751-2.824-0.663-3.401-1.99c0.971-6.708,5.682-11.108,13.33-10.204            c0.763,4.252,2.073,11.005,5.881,12.663c2.197-1.929,4.359-3.952,6.478-6.048c-0.527-2.848-2.903-5.834-4.99-7.463            c-1.372-1.073-3.232-1.23-3.972-2.551c1.101-4.194,3.587-6.998,8.221-7.658c0.457,3.983,1.634,8.842,4.537,10.767            c0.616,0.411,1.315,0.69,2.037,0.844c2.047-2.23,4.039-4.507,5.964-6.811            C168.941,266.796,164.466,263.613,161.152,262.361z M106.715,315.091c-1.812-0.45-1.877-2.66-2.271-4.532            C105.538,311.736,106.838,312.7,106.715,315.091z M153.782,286.461c-2.88-1.186-3.394-4.739-4.254-7.941            C151.74,280.077,155.42,282.895,153.782,286.461z M165.689,273.986c-3.464-0.503-4.022-3.918-4.537-7.371            C163.534,268.029,166.676,270.137,165.689,273.986z"/>
									</g>
									<g>
										<g>
											<path style="fill-rule:evenodd;clip-rule:evenodd;fill:#8C0C06;" d="M84.267,201.206             c-1.504,0.213-1.791-1.925-2.405-3.281c-0.913-1.986-2.516-3.74-1.309-6.33c2.143-0.461,3.056,2.266,3.714,4.372             C84.83,197.775,85.512,200.375,84.267,201.206z"/>
										</g>
										<g>
											<path style="fill-rule:evenodd;clip-rule:evenodd;fill:#FFFFFF;" d="M89.073,202.3c-1.267,0.102-1.168-1.161-1.309-2.183             C88.983,198.241,90.665,201.45,89.073,202.3z"/>
										</g>
										<g>
											<path style="fill-rule:evenodd;clip-rule:evenodd;fill:#8C0C06;" d="M86.89,206.014c0.644,1.036,2.011,4.24,0.216,5.021             c-1.33-0.732-1.988-3.221-1.527-5.021C86.012,206.014,86.452,206.014,86.89,206.014z"/>
										</g>
									</g>
									<g>
										<g>
											<path style="fill-rule:evenodd;clip-rule:evenodd;fill:#8C0C06;" d="M92.009,265.311             c1.022,1.592,0.975,4.667,0.855,7.373c-0.125,2.811-0.018,6.574-1.986,7.371c-1.508-0.783-1.796-4.289-1.986-7.086             c-0.204-3.047,0.181-6.071,1.701-7.658C91.063,265.311,91.541,265.311,92.009,265.311z"/>
										</g>
										<g>
											<path style="fill-rule:evenodd;clip-rule:evenodd;fill:#FFFFFF;" d="M93.142,289.415             c-2.069,0.359-2.278-3.698-0.844-4.259C93.763,285.346,94.766,288.734,93.142,289.415z"/>
										</g>
									</g>
								</g>
							</g>
						</g>
					</g>
					<g>
						<g>
							<path style="fill-rule:evenodd;clip-rule:evenodd;fill:#2F3F9A;" d="M178.368,411.039         c-4.391,7.102-9.681,13.638-13.96,21.818c-1.393,2.653-3.045,6.022-3.158,8.768c-0.111,2.855,0.98,6.638,1.752,9.824         c1.541,6.307,3.309,11.877,5.619,17.54c1.054,2.597,3.362,5.262,2.449,8.418c-3.684-0.517-7.111-3.133-9.82-5.255         c-7.954-6.242-15.309-14.366-19.297-24.918c-1.418-0.477-2.201,1.453-2.804,2.463c-2.296,3.805-6.337,8.87-9.827,6.664         c-2.653-1.677,0.257-7.408,1.258-9.725c7.299-17.007,13.381-33.206,21.704-49.989C159.5,401.003,170.822,407,178.368,411.039         z"/>
						</g>
						<g>
							<path style="fill-rule:evenodd;clip-rule:evenodd;fill:#FFFFFF;" d="M156.08,437.082c1.159,1.439,1.467,7.06-0.704,7.644         C152.948,444.444,152.044,436.278,156.08,437.082z"/>
						</g>
						<g>
							<path style="fill-rule:evenodd;clip-rule:evenodd;fill:#FFFFFF;" d="M160.775,430.11c0.443,1.351-0.871,5.471-2.6,5.304         C156.507,434.54,158.094,428.423,160.775,430.11z"/>
						</g>
					</g>
					<g>
						<g>
							<path style="fill-rule:evenodd;clip-rule:evenodd;fill:#2F3F9A;" d="M56.113,323.84c-4.208-7.215-8.48-14.294-13.678-21.92         c-1.687-2.477-3.869-5.524-6.242-6.916c-2.463-1.455-6.316-2.269-9.491-3.086c-6.293-1.615-12.035-2.681-18.12-3.313         C5.79,288.31,2.359,289.093,0,286.799c2.194-3.005,6.115-4.794,9.268-6.184c9.254-4.076,19.89-6.736,31.065-5.281         c1.096-1.026-0.243-2.625-0.843-3.626c-2.273-3.821-4.845-9.771-1.249-11.812c2.73-1.552,6.411,3.723,7.994,5.695         c11.553,14.454,20.735,29.207,31.619,44.46C70.597,314.359,63.223,319.085,56.113,323.84z"/>
						</g>
						<g>
							<g>
								<path style="fill-rule:evenodd;clip-rule:evenodd;fill:#FFFFFF;" d="M56.527,310.922c1.673,2.616,2.159,5.281,1.096,5.967          c-1.064,0.681-3.279-0.885-4.956-3.494c-1.668-2.607-2.164-5.274-1.096-5.955C52.634,306.754,54.857,308.318,56.527,310.922          z"/>
							</g>
							<g>
								<path style="fill-rule:evenodd;clip-rule:evenodd;fill:#FFFFFF;" d="M49.727,304.082c-0.452,0.628-1.525,0.628-2.377,0          c-0.855-0.619-1.189-1.629-0.725-2.259c0.45-0.63,1.522-0.63,2.38-0.005C49.856,302.444,50.183,303.454,49.727,304.082z"/>
							</g>
						</g>
					</g>
				</g>
			</g>
			<g>
				<g>
					<g>
						<path style="fill-rule:evenodd;clip-rule:evenodd;fill:#C4240A;" d="M124.336,110.421c-3.001,1.599-6.485,3.163-10.508,3.612        c-6.305,0.709-12.519-0.795-16.706-2.732c0.616-2.898,1.375-5.89,2.226-8.907c0.08-0.282,0.652-0.75,0.734-1.033        c0.076-0.265-0.339-0.344-0.262-0.608c0.553-1.891,1.138-3.786,1.745-5.669c0.076-0.237,0.612-0.427,0.689-0.663        c0.08-0.247-0.298-0.541-0.217-0.787c0.354-1.075,0.713-2.145,1.077-3.205c0.12-0.349,0.477-0.117,0.598-0.464        c0.147-0.424,0.057-1.428,0.205-1.849c0.787-2.24,1.584-4.429,2.367-6.534c0.192-0.517,0.381-1.036,0.571-1.555        c0.071-0.193,0.663-0.355,0.734-0.547c0.934-2.524,1.399-4.999,2.877-6.797c0.042-0.051,0.482-0.176,0.57-0.18        c1.536-0.043,2.143,1.978,2.716,3.451c0.51,1.297,0.988,2.654,1.446,4.045c0.059,0.18-0.363,0.821-0.304,1.002        c0.077,0.237,0.634,0.014,0.709,0.252c0.976,3.076,1.87,6.271,2.801,9.306c0.217,0.708,0.433,1.411,0.647,2.109        c0.07,0.23-0.404,0.597-0.334,0.826c0.065,0.211,0.673,0.283,0.738,0.493c0.137,0.446,0.272,0.891,0.408,1.334        c0.069,0.227-0.289,0.53-0.22,0.755c0.073,0.239,0.572,0.4,0.645,0.637c0.843,2.769,1.658,5.473,2.445,8.146        c0.127,0.432,0,1.478,0.126,1.908c0.25,0.857,0.75,1.096,0.995,1.949c0.051,0.178,0.102,0.356,0.153,0.534        c0.059,0.206-0.231,0.412-0.173,0.617C123.884,110.053,124.284,110.237,124.336,110.421z"/>
					</g>
					<g>
						<g>
							<path style="fill-rule:evenodd;clip-rule:evenodd;fill:#FFFFFF;" d="M113.527,83.478c0.419-0.888,1.102-1.674,2.076-2.224         c-0.136-0.428-0.276-0.851-0.415-1.274c-1.322,0.673-2.229,1.681-2.817,2.57c-0.489-0.526-1.335-0.619-2.394-0.438         c0.173-1.655-1.114-3.022-2.668-3.304c-0.148,0.392-0.295,0.785-0.44,1.181c0.02,0,0.04-0.005,0.06-0.004         c1.124,0.051,1.74,0.874,1.791,2.384c-0.864,0.657-3.758,2.11-2.98,3.84c0.178,0.403,0.755,0.602,1.233,0.565         c1.566-0.109,2.208-2.31,2.811-3.235c0.772-0.329,1.791-0.236,2.143,0.35c-0.357,1.474-0.333,3.906,0.973,4.58         C115.821,88.484,114.199,84.806,113.527,83.478z"/>
						</g>
						<g>
							<path style="fill-rule:evenodd;clip-rule:evenodd;fill:#FFFFFF;" d="M116.243,94.313c1.235,0.395,2.289,0.161,3.213-0.322         c-0.133-0.435-0.268-0.874-0.402-1.313c-0.657,0.377-1.416,0.587-2.358,0.416c0.605-1.709,0.211-4.531-1.643-4.272         c-2.271,0.318-1.108,3.848-0.046,4.925c-1.126,2.811-5.246,2.456-6.099-0.042c0.908-0.303,1.645-0.644,2.187-1.404         c0.941-1.32,0.735-3.88-0.7-4.256c-2.183-0.582-3.35,2.633-3.378,4.47c-1.831-0.549-2.905-2.429-3.101-4.384         c-0.269,0.766-0.534,1.541-0.801,2.318c0.874,1.956,2.591,3.286,4.419,3.533c0.85,1.747,2.611,3.478,4.924,3.209         C114.278,96.98,115.392,95.705,116.243,94.313z M108.531,92.462c-0.176-1.549,0.362-2.527,1.427-3.078         C110.881,90.739,109.741,92.126,108.531,92.462z M115.205,90.208c0.426,0.125,0.403,1.362,0.306,1.725         C115.172,91.508,114.913,90.718,115.205,90.208z"/>
						</g>
						<g>
							<path style="fill-rule:evenodd;clip-rule:evenodd;fill:#FFFFFF;" d="M120.28,96.695c-0.144-0.472-0.286-0.941-0.431-1.417         c-2.293,0.59-3.823,2.315-4.594,3.952c-0.841-0.922-3.427-1.128-4.583-0.09c-1.089-0.913-2.002-2.062-4.161-1.65         c-0.378-2.215-2.441-3.806-4.467-3.856c-0.151,0.458-0.3,0.917-0.448,1.376c1.513-0.241,3.231,0.833,3.562,2.982         c-1.249,0.709-3.661,3.605-2.727,5.1c0.98,1.559,2.797-0.654,3.248-1.404c0.582-0.959,0.732-1.93,1.094-2.822         c1.569-0.285,2.326,0.433,2.859,1.446c-0.637,1.226-0.772,4.738,0.957,4.47c1.464-0.232,1.073-2.766,0.69-4.409         c0.969-0.978,3.068-0.711,3.564,0.426c-0.385,1.443-0.074,5.665,1.655,5.44c1.325-0.167,1.166-2.685,0.825-4.191         c-0.171-0.769-0.89-1.281-0.913-1.893c-0.019-0.57,0.952-1.884,1.177-2.12C118.315,97.285,119.259,96.876,120.28,96.695z          M103.712,101.899c0.202-0.822,0.769-1.348,1.186-2.002C104.898,100.465,104.37,101.51,103.712,101.899z"/>
						</g>
						<g>
							<g>
								<path style="fill-rule:evenodd;clip-rule:evenodd;fill:#FFFFFF;" d="M109.146,113.028c1.24-0.83,2.577-6.602,0.086-6.808          c-1.149-0.102-1.335,0.823-1.884,1.026c-0.206-1.483-1.115-2.268-2.356-2.206c-3.051,0.15-5.24,4.415-4.097,7.684          c0.991,0.305,2.042,0.568,3.132,0.792c1.011-1.146,2.155-2.18,2.658-3.733c0.318,1.012,0.336,2.386,0.82,3.188          c-0.305,0.31-0.759,0.654-1.281,0.921c0.673,0.093,1.357,0.162,2.05,0.213c0.015-0.018,0.039-0.033,0.054-0.052          c0.015,0.02,0.033,0.04,0.048,0.06c0.622,0.044,1.249,0.067,1.882,0.073C109.795,113.915,109.401,113.532,109.146,113.028z           M102.461,112.942c-1.416-2.878,0.174-6.784,3.29-6.342C106.316,109.629,104.252,111.45,102.461,112.942z M108.796,107.673          c0.19-0.053,0.213,0.086,0.364,0.077c0.303,1.682-0.118,2.794-0.642,3.818C107.788,110.35,108.184,108.486,108.796,107.673z          "/>
							</g>
							<g>
								<path style="fill-rule:evenodd;clip-rule:evenodd;fill:#FFFFFF;" d="M124.336,110.421c-0.109-0.385-0.223-0.773-0.333-1.158          c-0.051-0.03-0.1-0.049-0.151-0.081c0.003-0.153,0-0.309-0.007-0.467c-0.367-1.282-0.738-2.569-1.118-3.862          c-0.661-1.056-1.575-1.673-2.65-1.234c-0.424,0.174-0.758,0.901-0.79,1.379c-0.185,2.414,2.048,4.106,3.144,5.162          c-0.043,0.495-0.233,1.001-0.513,1.471C122.757,111.242,123.563,110.833,124.336,110.421z M120.696,104.96          c1.223,0.308,1.497,1.819,1.763,3.327C121.544,107.583,120.817,106.642,120.696,104.96z"/>
							</g>
							<g>
								<path style="fill-rule:evenodd;clip-rule:evenodd;fill:#FFFFFF;" d="M99.535,102.237c0.521-0.461,1.286-0.38,1.281-1.073          c-0.261-0.561-0.652-0.558-0.983-0.433c-0.166,0.568-0.325,1.134-0.484,1.7C99.411,102.366,99.472,102.293,99.535,102.237z"/>
							</g>
							<g>
								<path style="fill-rule:evenodd;clip-rule:evenodd;fill:#FFFFFF;" d="M114.276,113.968c1.183-0.158,2.319-0.408,3.408-0.728          c-0.26-0.173-0.509-0.404-0.737-0.715c0.778-1.256,1.219-5.29-0.718-5.547c-2.827-0.383-2.591,4.31-1.006,5.85          C114.994,113.3,114.664,113.677,114.276,113.968z M116.032,108.403c0.419,0.996,0.169,2.118-0.028,2.931          C115.365,110.824,114.894,108.637,116.032,108.403z"/>
							</g>
						</g>
					</g>
				</g>
				<g>
					<path style="fill-rule:evenodd;clip-rule:evenodd;fill:#2F3F9A;" d="M114.57,74.811c0.767,1.43,1.321,4.233-0.19,4.708       c-1.849,0.589-2.834-1.886-3.325-3.617c-0.415,1.047-1.754,3.925-3.601,3.559c-0.558-0.112-0.906-0.819-0.892-1.781       c0.025-1.53,1.207-3.41,1.756-4.292c-1.298,0.717-4.889,1.927-5.369,0.235c-0.366-1.289,1.731-2.77,2.797-3.354       c-0.565-0.496-1.177-0.594-1.219-1.505c-0.093-1.866,3.531-1.851,4.917-1.125c-0.167-0.741-0.639-2.314,0.297-2.611       c1.576-0.508,2.097,2.711,2.477,4.416c0.801-0.687,2.037-3.353,3.781-4.048c0.836-0.338,1.981-0.425,2.477,0.196       c0.299,2.562-1.402,3.523-2.502,4.961c1.677-0.547,3.902-0.081,4.361,1.284C121.331,74.78,116.831,76.194,114.57,74.811z"/>
				</g>
			</g>
		</g>
		<g>
			<g>
				<g>
					<g>
						<path style="fill-rule:evenodd;clip-rule:evenodd;fill:#FCB322;" d="M195.408,137.705c3.265,0.473,6.268,16.134,3.531,17.459        C195.38,156.893,193.811,137.482,195.408,137.705C196.805,137.909,195.241,137.686,195.408,137.705z"/>
					</g>
					<g>
						<path style="fill-rule:evenodd;clip-rule:evenodd;fill:#FCB322;" d="M205.202,156.473c-2.908-1.114,4.984-9.222,6.458-6.724        C213.365,152.638,208.194,157.613,205.202,156.473z"/>
					</g>
					<g>
						<path style="fill-rule:evenodd;clip-rule:evenodd;fill:#FCB322;" d="M192.882,159.017c-2.19,1.854-7.913-2.12-6.93-5.16        C186.696,151.57,195.016,157.217,192.882,159.017z"/>
					</g>
					<g>
						<path style="fill-rule:evenodd;clip-rule:evenodd;fill:#FCB322;" d="M237.122,152.379c0.489,3.902-29.702,13.557-31.197,9.5        C204.908,159.11,236.626,148.495,237.122,152.379C237.417,154.768,236.949,151.021,237.122,152.379z"/>
					</g>
					<g>
						<path style="fill-rule:evenodd;clip-rule:evenodd;fill:#FCB322;" d="M191.552,164.766c1.006,4.226-22.274,12.73-24.709,9.76        C164.327,171.453,190.753,161.394,191.552,164.766C192.048,166.814,191.26,163.529,191.552,164.766z"/>
					</g>
					<g>
						<path style="fill-rule:evenodd;clip-rule:evenodd;fill:#FCB322;" d="M197.387,168.422c0.996,2.614-5.619,11.518-7.931,8.842        C188.049,175.651,196.024,164.822,197.387,168.422C198.332,170.911,197.22,167.963,197.387,168.422z"/>
					</g>
					<g>
						<path style="fill-rule:evenodd;clip-rule:evenodd;fill:#FCB322;" d="M207.489,168.798c2.493-0.009,8.615,6.919,5.751,8.054        C211.192,177.663,205.277,168.816,207.489,168.798C209.227,168.793,207.318,168.798,207.489,168.798z"/>
					</g>
				</g>
				<g>
					<g>
						<path style="fill:#768BE5;" d="M212.981,220.32c-0.042,0.018-0.097,0.033-0.141,0.042c-0.586,0.123-1.161-0.243-1.286-0.829        l-12.674-59.137c-0.127-0.584,0.246-1.158,0.834-1.281c0.579-0.121,1.152,0.25,1.277,0.827l12.677,59.143        C213.775,219.62,213.479,220.137,212.981,220.32z"/>
					</g>
					<g>
						<path style="fill:#2F3F9A;" d="M204.727,181.655c-0.069,0.023-0.146,0.042-0.222,0.058c-0.876,0.19-1.722-0.366-1.914-1.242        l-4.235-19.964c-0.186-0.878,0.368-1.738,1.247-1.916c0.867-0.192,1.726,0.371,1.905,1.244l4.247,19.969        C205.925,180.594,205.473,181.377,204.727,181.655z"/>
					</g>
				</g>
			</g>
			<g>
				<g>
					<g>
						<g>
							<g>
								<path style="fill-rule:evenodd;clip-rule:evenodd;fill:#2F3F9A;" d="M331.094,236.389c4.319,2.56,11.931,3.793,17.867,5.102          c13.687,3.028,28.041,6.502,41.675,9.641c4.421,10.436,5.074,25.212,3.411,38.843c-0.236,1.872-0.992,4.073-0.855,5.387          c0.132,1.402,1.657,3.144,2.546,4.82c5.756,10.821,11.873,21.954,17.014,32.893c10.151-16.127,20.787-31.559,34.019-44.798          c4.331-4.333,8.376-7.987,13.61-12.473c5.211,4.995,11.78,10.144,15.881,15.309c-12.79,22.552-28.143,44.838-44.513,65.772          c-5.04,6.444-11.229,14.834-18.435,18.15c-5.547,2.556-11.062,1.316-15.307-1.42c-6.627-4.266-11.875-12.79-16.442-20.128          c-13.919-22.35-27.128-46.775-35.162-73.716c-9.407,9.994-16.956,21.426-25.794,32.038          c-5.983,7.178-13.585,15.545-19.855,23.534c-3.188,4.067-6.451,8.045-7.086,14.176c-0.463,4.488,0.033,9.495,0.283,14.171          c0.686,12.776,2.271,26.076,2.271,40.259c0,18.805-2.797,35.567-5.668,51.613c-7.456-0.074-13.958,0.496-21.549,0.278          c-3.072-33.456-7.371-66.405-7.371-103.207c-0.007-11.843,1.003-22.965,4.534-32.316          c3.156-8.372,8.545-15.638,14.178-22.684c5.443-6.829,11.291-13.573,16.722-20.131          C308.973,263.149,319.603,248.755,331.094,236.389z"/>
							</g>
							<g>
								<g>
									<g>
										<path style="fill-rule:evenodd;clip-rule:evenodd;fill:#2B1F72;" d="M383.83,283.458c1.893,3.116,5.948,2.445,9.076,4.537            c0.44,0.295,0.839,0.743,1.22,1.258c1.138-9.84,1.062-20.215-0.768-29.095c-3.248,0.524-7.116,0.22-8.676,1.469            c-2.37,1.898-2.352,12.318-1.986,16.724C382.811,279.771,383.225,282.455,383.83,283.458z"/>
									</g>
									<g>
										<path style="fill-rule:evenodd;clip-rule:evenodd;fill:#2B1F72;" d="M346.693,280.694            c-0.393-2.378-1.069-5.075-1.435-7.049c-0.73-3.979-1.803-11.956-5.098-8.508c-1.335,5.04-0.283,14.111,0.283,18.998            c0.083,0.731,0.117,1.494,0.154,2.243c1.875-2.25,3.793-4.466,5.807-6.606            C346.497,280.081,346.599,280.385,346.693,280.694z"/>
									</g>
									<g>
										<path style="fill-rule:evenodd;clip-rule:evenodd;fill:#2B1F72;" d="M412.6,332.759            c-0.011,4.842,0.817,10.205,2.821,10.19c2.549-0.019,2.799-6.613,3.126-9.363c0.459-3.888,1.159-7.458,0.307-9.991            c-2.063,3.126-4.093,6.289-6.102,9.481C412.702,332.97,412.65,332.864,412.6,332.759z"/>
									</g>
									<g>
										<path style="fill-rule:evenodd;clip-rule:evenodd;fill:#2B1F72;" d="M286.863,336.76            c-2.391,2.556,2.662,6.259,4.829,8.504c0.762,0.794,1.574,1.553,2.293,2.268c0.697-3.318,2.185-5.989,3.931-8.456            C294.935,337.278,289.488,336.484,286.863,336.76z"/>
									</g>
								</g>
								<g>
									<g>
										<g>
											<path style="fill-rule:evenodd;clip-rule:evenodd;fill:#2B1F72;" d="M275.704,322.088             c0.215,2.143-0.623,4.446-1.335,6.126c-0.677,1.603-1.295,3.765-3.459,3.195c-0.674-3.541,1.073-6.903,2.129-9.59             C273.869,321.022,275.027,321.391,275.704,322.088z"/>
										</g>
										<g>
											<path style="fill-rule:evenodd;clip-rule:evenodd;fill:#FFFFFF;" d="M271.705,337.532             c0.864,2.801,1.163,8.976-1.863,9.593c-1.177-0.635-0.897-3.341-0.795-5.325c0.097-1.946,0.227-3.635,1.064-4.532             C270.924,337.075,271.079,337.543,271.705,337.532z"/>
										</g>
									</g>
									<g>
										<g>
											<path style="fill-rule:evenodd;clip-rule:evenodd;fill:#FFFFFF;" d="M403.62,370.798             c-2.396,0.519-4.525-2.363-5.269-4.926c-0.315-1.073-0.431-2.398-0.19-3.58             C400.706,360.538,405.548,367.424,403.62,370.798z"/>
										</g>
										<g>
											<path style="fill-rule:evenodd;clip-rule:evenodd;fill:#2B1F72;" d="M414.782,363.81c0.73,1.893-1.355,3.376-2.547,4.532             c-1.103,1.075-2.648,3.246-4.528,2.269C407.291,366.847,411.188,363.573,414.782,363.81z"/>
										</g>
									</g>
								</g>
							</g>
						</g>
						<g>
							<g>
								<path style="fill-rule:evenodd;clip-rule:evenodd;fill:#C4240A;" d="M489.514,286.676c3.913,1.745,7.754,3.231,11.701,3.907          l1.439-0.396l1.409,0.734c0.724,0.047,1.454,0.062,2.189,0.044c1.731-0.035,4.194-0.039,5.325-1.634          c0.158-0.224,0.269-0.46,0.337-0.707c-1.17-2.637-5.18-6.207-5.18-6.207s-10.445-10.167-16.583-15.114          c-4.479-3.597-6.687-5.197-11.751-6.996c-0.435,0.071-0.866,0.185-1.292,0.345c-2.372,0.894-4.54,2.564-6.691,4.419          l-0.415,1.662l-1.483,0.009c-0.087,0.077-0.174,0.154-0.261,0.231c-2.859,2.551-5.399,5.304-8.026,8.983          c3.506,4.11,8.647,9.078,14.074,13.425c-3.151,3.193-2.433,5.98,0.644,9.085c1.054,1.061,3.072,2.563,4.115,2.387          C481.182,300.479,488.286,289.149,489.514,286.676z"/>
							</g>
							<g>
								<g>
									<path style="fill:#2B1F72;" d="M485.594,299.567L485.594,299.567c-0.774-0.188-1.302-0.744-1.492-1.573           c-0.693-3.042,3.411-10.116,4.699-11.18c0.169-0.134,0.406-0.181,0.612-0.116c0.211,0.072,0.375,0.243,0.431,0.468           c0.57,2.234,0.135,8.928-1.701,11.409c-0.505,0.677-1.094,1.029-1.742,1.064           C486.117,299.653,485.839,299.63,485.594,299.567 M488.763,288.897c-1.485,2.176-3.828,6.833-3.383,8.81           c0.1,0.431,0.306,0.535,0.519,0.589l0,0c0.125,0.035,0.274,0.039,0.436,0.039c0.241-0.009,0.491-0.197,0.748-0.542           C488.314,296.131,488.907,291.622,488.763,288.897"/>
								</g>
								<g>
									<path style="fill:#2B1F72;" d="M492.019,299.662L492.019,299.662c-0.646-0.148-1.198-0.651-1.664-1.487           c-1.592-2.917-1.796-9.597-1.307-11.069c0.072-0.211,0.252-0.368,0.466-0.422c0.222-0.058,0.449,0.005,0.612,0.16           c1.668,1.597,4.847,7.498,4.604,10.58c-0.07,0.836-0.373,1.446-0.906,1.828           C493.212,299.667,492.605,299.81,492.019,299.662 M490.14,288.906c-0.081,2.303,0.253,6.606,1.367,8.645           c0.273,0.489,0.559,0.783,0.827,0.85c0.206,0.044,0.457-0.035,0.741-0.232c0.202-0.139,0.315-0.419,0.348-0.855           C493.583,295.257,491.704,291.137,490.14,288.906"/>
								</g>
								<g>
									
										<rect x="493.245" y="284.892" transform="matrix(0.5043 -0.8635 0.8635 0.5043 -5.4048 570.1662)" style="fill:#2B1F72;" width="1.311" height="9.798"/>
								</g>
							</g>
							<g>
								<path style="fill:#FFFFFF;" d="M478.402,260.317c3.988-0.649,8.353,2.308,12.832,5.904          c6.138,4.947,11.398,9.621,16.583,15.114c2.211,2.338,4.671,5.193,4.09,7.287L478.402,260.317z"/>
							</g>
							<g>
								<g>
									<path style="fill-rule:evenodd;clip-rule:evenodd;fill:#FFFFFF;" d="M502.909,287.923           c-2.994-6.119-9.618-10.031-15.295-9.635c-5.023,0.352-9.264,3.666-13.784,8.277c-0.384,0.394-0.845,0.858-1.316,1.349           c0.593,0.495,1.189,0.987,1.791,1.469l0.028,0.011c6.67-7.105,14.282-12.013,22.179-5.563           c2.222,1.817,3.587,3.853,4.393,5.681c0.143,0.324,0.234,0.683,0.314,1.053c0.942,0.161,1.889,0.292,2.845,0.354           C503.827,289.833,503.299,288.713,502.909,287.923z"/>
								</g>
								<g>
									<path style="fill-rule:evenodd;clip-rule:evenodd;fill:#FFFFFF;" d="M488.436,264.071           c-1.011,0.371-2.222,1.624-3.352,2.437c-4.201,3.031-9.412,4.527-14.053-0.482c-0.249-0.269-0.43-0.614-0.614-0.954           c-0.625,0.539-1.25,1.095-1.877,1.651c0.27,0.36,0.582,0.69,0.852,0.983c5.137,5.589,11.071,4.611,16.145,1.376           c1.177-0.752,4.043-2.495,4.419-3.867C489.448,264.822,488.941,264.437,488.436,264.071z"/>
								</g>
							</g>
						</g>
						<g>
							<g>
								<path style="fill-rule:evenodd;clip-rule:evenodd;fill:#C4240A;" d="M262.084,468.275          c-4.032,1.475-7.817,3.087-11.118,5.351l-0.627,1.268l-1.651,0.473c-0.554,0.472-1.09,0.97-1.607,1.496          c-1.212,1.23-2.98,2.945-2.678,4.884c0.042,0.27,0.127,0.516,0.25,0.74c3.654,1.941,5.094,0.803,8.303,0.944          c7.547,0.331,22.088-1.212,22.088-1.212s8.158,0.289,13.379-2.765c0.264-0.354,0.495-0.736,0.69-1.148          c1.075-2.292,1.469-5.002,1.72-7.832l-0.748-1.504l0.943-0.983c0.009-0.126,0.019-0.253,0.028-0.379          c0.273-3.823,0.176-7.577-0.501-12.044c-5.378-0.512-12.531-0.489-19.445,0.174c0.033-4.483-2.428-5.987-6.794-6.071          c-1.494-0.023-3.994,0.304-4.616,1.161C258.437,452.57,261.238,465.642,262.084,468.275z"/>
							</g>
							<g>
								<g>
									<path style="fill:#2B1F72;" d="M256.009,456.298L256.009,456.298c0.686-0.396,1.453-0.368,2.169,0.093           c2.613,1.703,4.602,9.637,4.414,11.291c-0.03,0.223-0.164,0.415-0.361,0.51c-0.197,0.1-0.438,0.09-0.633-0.033           c-1.958-1.205-6.319-6.309-6.722-9.375c-0.111-0.834,0.06-1.501,0.503-1.972           C255.575,456.597,255.793,456.425,256.009,456.298 M261.173,466.159c-0.456-2.59-2.016-7.563-3.712-8.661           c-0.373-0.257-0.605-0.181-0.792-0.072l0,0c-0.104,0.067-0.218,0.16-0.338,0.28c-0.162,0.172-0.213,0.48-0.158,0.906           C256.451,460.661,259.167,464.312,261.173,466.159"/>
								</g>
								<g>
									<path style="fill:#2B1F72;" d="M251.328,460.707L251.328,460.707c0.572-0.336,1.316-0.368,2.229-0.09           c3.179,0.978,7.989,5.642,8.654,7.032c0.093,0.192,0.079,0.433-0.037,0.628c-0.123,0.195-0.329,0.308-0.549,0.308           c-2.31,0.019-8.705-2.002-10.672-4.382c-0.535-0.653-0.746-1.298-0.621-1.942           C250.473,461.534,250.807,461.011,251.328,460.707 M260.175,467.109c-1.541-1.696-4.787-4.555-7.002-5.241           c-0.538-0.164-0.95-0.174-1.186-0.03c-0.176,0.104-0.306,0.331-0.373,0.681c-0.047,0.234,0.072,0.519,0.345,0.855           C253.277,464.961,257.496,466.602,260.175,467.109"/>
								</g>
								<g>
									<polygon style="fill:#2B1F72;" points="251.944,469.642 261.463,467.288 261.769,468.569 252.257,470.916          "/>
								</g>
							</g>
							<g>
								<path style="fill:#FFFFFF;" d="M288.413,479.445c-2.407,3.246-7.598,4.161-13.319,4.697          c-7.85,0.735-14.878,1.047-22.424,0.716c-3.216-0.137-6.968-0.475-8.003-2.38L288.413,479.445z"/>
							</g>
							<g>
								<g>
									<path style="fill-rule:evenodd;clip-rule:evenodd;fill:#FFFFFF;" d="M271.081,455.772           c0.164,9.737-1.888,18.553-12.039,19.419c-2.864,0.246-5.26-0.264-7.111-1.012c-0.327-0.134-0.64-0.329-0.954-0.539           c-0.788,0.54-1.557,1.105-2.287,1.727c0.926,0.613,2.082,1.048,2.91,1.344c6.418,2.305,13.891,0.503,17.679-3.742           c3.364-3.747,4.099-9.078,4.129-15.543c0.003-0.55,0.011-1.204,0.008-1.883c-0.769,0.058-1.538,0.12-2.304,0.194           L271.081,455.772z"/>
								</g>
								<g>
									<path style="fill-rule:evenodd;clip-rule:evenodd;fill:#FFFFFF;" d="M289.729,467.869           c-7.575-0.436-11.152,4.405-12.535,10.251c-0.325,1.364-1.168,4.605-0.486,5.856c0.641-0.071,1.275-0.149,1.893-0.238           c0.468-0.972,0.465-2.712,0.706-4.084c0.911-5.093,3.598-9.801,10.418-9.44c0.366,0.02,0.738,0.143,1.108,0.26           c0.073-0.821,0.134-1.653,0.196-2.487C290.583,467.916,290.13,467.891,289.729,467.869z"/>
								</g>
							</g>
						</g>
					</g>
					<g>
						<g>
							<g>
								<path style="fill-rule:evenodd;clip-rule:evenodd;fill:#EFAC8B;" d="M463.009,194.438c0.95,0.672,3.693,3.517,5.406,4.356          c0.653,0.331,1.538,0.514,1.951,0.005c0.867-1.084-1.497-3.121-2.222-3.951c-1.258-1.43-2.039-2.505-3.154-3.691          c1.186,0.621,3.837,3.394,5.883,4.534c0.85,0.477,1.925,0.857,2.426,0.178c0.635-0.869-1.115-2.762-1.682-3.424          c-2.734-3.163-5.76-6.717-7.419-9.665c-1.911-3.395-3.107-6.571-3.826-10.325c-0.174-0.899-0.16-2.91-0.894-3.478          c-0.341-0.262-1.481-0.315-1.912-0.271c-1.471,0.15-3.119,0.862-5.209,1.647c-0.799,0.303-1.603,0.57-2.549,1.084          c-0.776,0.417-2.167,0.989-2.431,1.325c-0.413,0.528-0.371,2.129-0.329,3.077c0.107,2.769,0.57,6.641,0.725,8.928          c0.13,1.981,0.264,4.062,0.368,5.966c0.084,1.81,0.359,7.746,2.697,7.901c1.918,0.137,0.969-5.579,1.358-7.037          c1.087,2.366,3.45,5.892,6.657,8.828c0.839,0.778,2.533,2.484,3.355,1.884c1.131-0.823-0.167-2.234-0.623-2.994          c-0.646-1.054-1.017-1.9-1.735-2.704c1.339,0.855,3.744,3.469,5.471,4.245c0.563,0.26,1.344,0.352,1.68-0.032          c0.776-0.895-0.658-2.127-1.446-3.112c-1.077-1.346-1.682-2.289-2.44-3.2C463.083,194.494,463.044,194.462,463.009,194.438z          "/>
							</g>
							<g>
								<path style="fill-rule:evenodd;clip-rule:evenodd;fill:#EFAC8B;" d="M207.438,199.67c-1.045,0.503-4.861,1.536-6.418,2.625          c-0.609,0.426-1.196,1.103-0.952,1.717c0.522,1.274,3.46,0.19,4.532-0.047c1.858-0.401,3.181-0.572,4.752-0.973          c-1.119,0.744-4.817,1.717-6.803,2.954c-0.832,0.514-1.689,1.272-1.335,2.037c0.452,0.985,2.961,0.364,3.807,0.188          c4.094-0.869,8.668-1.798,12.051-1.826c3.893-0.035,7.257,0.459,10.883,1.643c0.878,0.283,2.632,1.27,3.473,0.904          c0.399-0.174,1.001-1.152,1.175-1.546c0.568-1.365,0.746-3.149,1.061-5.359c0.123-0.843,0.285-1.677,0.294-2.76          c0.012-0.878,0.176-2.368,0.012-2.764c-0.269-0.619-1.687-1.353-2.542-1.775c-2.468-1.247-6.085-2.709-8.161-3.68          c-1.794-0.843-3.684-1.731-5.401-2.567c-1.629-0.795-6.951-3.418-8.223-1.458c-1.043,1.617,4.421,3.547,5.503,4.597          c-2.593-0.192-6.821,0.169-10.948,1.559c-1.08,0.362-3.392,1.01-3.262,2.027c0.174,1.386,2.034,0.936,2.922,0.892          c1.237-0.051,2.157,0.039,3.209-0.206c-1.399,0.769-4.852,1.61-6.369,2.739c-0.494,0.373-0.957,1.01-0.781,1.49          c0.41,1.112,2.185,0.447,3.42,0.236c1.703-0.297,2.822-0.366,3.99-0.593C207.36,199.712,207.401,199.693,207.438,199.67z"/>
							</g>
							<g>
								<g>
									<path style="fill-rule:evenodd;clip-rule:evenodd;fill:#768BE5;" d="M462.367,177.137           c-5.065,1.45-10.17,2.871-15.306,4.249c-8.671-20.907-18.402-40.757-24.1-64.639           c-13.803,5.851-28.407,10.904-43.665,15.304c1.988,3.772,4.138,7.531,6.238,11.632           c6.159,11.998,10.14,25.981,10.492,43.941c0.445,22.689-0.269,48.024-3.649,68.477           c-21.584-3.749-45.452-9.718-65.803-14.697c3.684-11.069,8.321-24.515,8.209-37.333c-0.081-9.032-3.867-16.28-6.235-23.535           c-2.352,8.031-5.042,16.606-8.226,24.67c-3.149,7.994-5.895,16.062-10.775,21.832c-3.142,3.717-7.405,6.474-14.739,5.952           c-6.504-0.468-13.358-3.026-19.848-5.104c-17.999-5.767-37.842-13.817-54.718-19.848c1.532-6.117,3.543-11.764,5.38-17.575           c24.369,3.325,45.605,9.778,67.2,15.879c3.626-18.46,6.252-36.341,11.908-51.036c2.797-7.282,7.563-13.008,12.762-18.715           c2.551-2.804,5.531-5.081,7.934-7.936c4.753-5.651,8.671-12.401,14.456-17.012c2.834-2.264,6.258-3.928,9.926-5.677           c20.789-9.891,47.787-16.123,75.701-18.708c3.735-0.345,9.933-0.846,13.613,0.853c5.306,2.443,8.826,10.591,11.055,17.007           C457.546,126.305,460.667,150.805,462.367,177.137z"/>
								</g>
								<g>
									<g>
										<g>
											<path style="fill-rule:evenodd;clip-rule:evenodd;fill:#2F3F9A;" d="M439.046,176.004             c8.652-3.823,17.137-7.802,26.343-11.066c0.264,0.067,0.32,0.331,0.649,0.331c-0.243,3.297,1.858,8.386-0.324,11.382             c-1.446,1.99-8.348,3.853-11.057,4.88c-3.742,1.427-8.772,4.507-12.037,2.926             C439.794,183.089,440.297,178.464,439.046,176.004z"/>
										</g>
										<g>
											<path style="fill-rule:evenodd;clip-rule:evenodd;fill:#2F3F9A;" d="M236.967,187.904             c-2.178,10.483-5.172,20.161-7.368,30.625c-5.922-2.778-12.262-5.709-11.344-13.895c0.524-4.653,3.573-9.94,5.385-14.171             c0.642-1.485,0.746-3.554,2.269-4.249C226.859,185.769,233.918,186.542,236.967,187.904z"/>
										</g>
										<g>
											<g>
												<path style="fill-rule:evenodd;clip-rule:evenodd;fill:#2F3F9A;" d="M424.815,123.854              c0.865-1.069,1.65-2.271,2.245-3.063c1.939-2.572,6.377-8.121,5.056-8.583c-1.348-0.47-5.697,2.502-9.15,4.559              C423.54,119.171,424.164,121.525,424.815,123.854z"/>
											</g>
											<g>
												<path style="fill-rule:evenodd;clip-rule:evenodd;fill:#2F3F9A;" d="M331.258,171.147c-1.098,0-2.127,5.248-2.547,9.875              c1.094,3.269,2.447,6.547,3.602,9.993c0.026-0.008,0.049-0.011,0.076-0.02              C334.634,190.249,333.728,171.147,331.258,171.147z"/>
											</g>
											<g>
												<path style="fill-rule:evenodd;clip-rule:evenodd;fill:#2F3F9A;" d="M292.688,206.303              c2.895,3.675,7.246,7.772,8.548,6.684c1.629-1.355-4.333-11.662-6.943-14.335c-0.478,2.548-0.964,5.112-1.471,7.69              C292.777,206.328,292.733,206.316,292.688,206.303z"/>
											</g>
										</g>
										<g>
											<g>
												<path style="fill-rule:evenodd;clip-rule:evenodd;fill:#FFFFFF;" d="M342.443,159.84              c3.105-1.972,5.674,6.437,2.261,7.083C342.283,167.398,340.339,161.174,342.443,159.84z"/>
											</g>
											<g>
												<path style="fill-rule:evenodd;clip-rule:evenodd;fill:#FFFFFF;" d="M352.079,180.249c-0.568,0-1.138,0-1.703,0              c-0.749-0.862-1.411-3.517-0.285-4.532C352.424,175.436,353.326,178.743,352.079,180.249z"/>
											</g>
											<g>
												<path style="fill-rule:evenodd;clip-rule:evenodd;fill:#FFFFFF;" d="M357.462,196.695              c1.724,1.114,1.861,5.339-0.285,5.675C354.582,202.777,353.205,196.315,357.462,196.695z"/>
											</g>
											<g>
												<path style="fill-rule:evenodd;clip-rule:evenodd;fill:#FFFFFF;" d="M360.013,218.814              c0.952,1.942,0.586,6.351-1.413,6.52C355.423,225.596,355.754,217.009,360.013,218.814z"/>
											</g>
										</g>
										<g>
											<g>
												<g>
													<path style="fill-rule:evenodd;clip-rule:evenodd;fill:#FFFFFF;" d="M433.731,93.208               c0.037,3.853-9.836,4.655-12.19,2.271C422.287,92.552,430.628,90.76,433.731,93.208z"/>
												</g>
												<g>
													<path style="fill-rule:evenodd;clip-rule:evenodd;fill:#2F3F9A;" d="M440.821,101.433               c-1.8-0.269-3.36-1.803-3.117-3.404C438.349,93.683,444.387,98.926,440.821,101.433z"/>
												</g>
											</g>
											<g>
												<g>
													<path style="fill-rule:evenodd;clip-rule:evenodd;fill:#FFFFFF;" d="M382.363,147.499               c-1.548,0.519-2.322-1.073-3.04-2.034c-1.654-2.18-3.839-4.319-3.809-8.365c0.535-0.153,0.725-0.633,1.525-0.517               C379.664,139.216,382.811,142.642,382.363,147.499z"/>
												</g>
												<g>
													<path style="fill-rule:evenodd;clip-rule:evenodd;fill:#2F3F9A;" d="M377.039,153.591               c-2.484,0.102-4.722-5.357-1.27-5.837C377.373,148.477,379.268,152.145,377.039,153.591z"/>
												</g>
												<g>
													<path style="fill-rule:evenodd;clip-rule:evenodd;fill:#FFFFFF;" d="M383.643,151.049               c3.054,0.053,3.703,4.722,2.79,7.109C382.994,158.533,382.783,153.31,383.643,151.049z"/>
												</g>
											</g>
											<g>
												<g>
													<path style="fill-rule:evenodd;clip-rule:evenodd;fill:#2F3F9A;" d="M307.849,222.781               c-2.331-2.954,2.586-5.512,3.119-2.549C311.178,221.423,310.075,223.068,307.849,222.781z"/>
												</g>
												<g>
													<path style="fill-rule:evenodd;clip-rule:evenodd;fill:#FFFFFF;" d="M304.16,227.318               c-1.745,1.46-7.628,1.478-7.371-1.703C298.427,223.515,304.491,223.557,304.16,227.318z"/>
												</g>
											</g>
										</g>
									</g>
								</g>
							</g>
						</g>
						<g>
							<g>
								<g>
									<g>
										<path style="fill-rule:evenodd;clip-rule:evenodd;fill:#EFAC8B;" d="M329.675,134.377            c2.303-3.992,4.586-8.619,5.617-10.561c-6.156-7.53-12.542-14.762-18.384-22.306c-2.016-2.625-3.876-5.858-6.393-7.586            c-10.584-7.273-22.084-0.287-25.638,8.963c-3.325,8.668-1.3,24.424,9.405,25.418c2.447,0.229,6.071-0.873,10.119-4.595            c1.754,1.678,3.04,3.758,4.653,5.612c1.291,1.476,3.918,4.917,5.35,5.628c2.169,1.077,4.405,4.099,6.622,5.589            C323.359,137.839,326.32,135.712,329.675,134.377z"/>
									</g>
									<g>
										<path style="fill-rule:evenodd;clip-rule:evenodd;fill:#C4240A;" d="M271.227,94.257c1.135,3.74,4.495,4.697,7.245,4.859            c-0.368,0.758-2.957,0.969-2.273,1.854c2.345,3.098,4.949,3.297,7.894,1.963c6.073-2.734,12.679-11.677,17.612-5.116            c1.728,2.287,5.125,9.776,6.932,9.217c1.814-0.556,0.049-4.421,2.132-5.501c1.026-0.535,2.345-0.058,2.98,0.779            c1.981,2.648,0.06,4.618-1.854,5.603c0.843,2.454,1.863,6.119,4.094,6.703c2.977-0.299,3.77-3.494,4.354-6.187            c0.672-3.105-1.555-10.443-3.207-13.685c-2.067-4.121-6.34-6.373-10.71-4.923c-4.548-8.184-12.176-5.381-20.668-1.651            c-4.505,1.973-8.972,3.317-12.26,4.217C272.597,92.638,270.794,92.842,271.227,94.257z"/>
									</g>
								</g>
								<g>
									<g>
										<g>
											<g>
												<path style="fill-rule:evenodd;clip-rule:evenodd;fill:#FFFFFF;" d="M302.879,110.878              c-3.462-4.409-7.303-1.55-7.303-1.55s0.82,1.592,3.36,2.245C300.826,112.069,302.879,110.878,302.879,110.878"/>
											</g>
											<g>
												<path style="fill-rule:evenodd;clip-rule:evenodd;fill:#6B3F20;" d="M295.575,109.328c0,0,1.863-1.395,4.196-0.727              c0.056,0.192,0.186,0.577,0.176,0.783c-0.039,0.943-0.783,1.71-1.77,1.951              C296.233,110.593,295.575,109.328,295.575,109.328"/>
											</g>
										</g>
										<g>
											<path style="fill:#C4240A;" d="M295.598,106.807c1.455-0.586,5.496-0.938,8.038,1.909l0.929-0.82             c-2.748-3.082-7.178-3.165-9.44-2.236L295.598,106.807z"/>
										</g>
									</g>
									<g>
										<g>
											<g>
												<path style="fill-rule:evenodd;clip-rule:evenodd;fill:#FFFFFF;" d="M289.62,108.934              c-3.207-4.092-6.787-1.441-6.787-1.441s0.776,1.474,3.13,2.09C287.72,110.037,289.62,108.934,289.62,108.934"/>
											</g>
											<g>
												<path style="fill-rule:evenodd;clip-rule:evenodd;fill:#6B3F20;" d="M282.834,107.493c0,0,1.735-1.298,3.909-0.677              c0.044,0.185,0.167,0.538,0.162,0.732c-0.042,0.878-0.728,1.583-1.645,1.807              C283.457,108.665,282.834,107.493,282.834,107.493"/>
											</g>
										</g>
										<g>
											<path style="fill:#C4240A;" d="M282.884,105.196c1.335-0.545,5.068-0.862,7.41,1.768l0.929-0.829             c-2.563-2.875-6.696-2.959-8.812-2.09L282.884,105.196z"/>
										</g>
									</g>
									<g style="opacity:0.6;">
										<g>
											<path style="fill-rule:evenodd;clip-rule:evenodd;fill:#BC7E6D;" d="M304.401,123.71l4.09,4.949             c3.221-5.705,1.613-12.035,1.613-12.035S308.328,120.03,304.401,123.71z"/>
										</g>
										<g>
											<g>
												<path style="fill-rule:evenodd;clip-rule:evenodd;fill:#BC7E6D;" d="M291.771,107.942              c-0.633-0.174-2.737,5.677-2.623,6.305c0.144,0.804,2.887,1.393,3.114,1.085              C292.918,114.458,292.741,108.192,291.771,107.942"/>
											</g>
											<g>
												<path style="fill:#BC7E6D;" d="M289.025,121.246c3.399,1.045,6.319-1.335,7.589-3.988l-1.119-0.538              c-1.047,2.187-3.406,4.166-6.11,3.341L289.025,121.246z"/>
											</g>
											<g>
												<path style="fill:#BC7E6D;" d="M299.69,114.444c-1.052,1.416-0.76,3.422,0.653,4.469              c1.418,1.061,3.415,0.767,4.474-0.644c1.054-1.423,0.764-3.42-0.649-4.479              C302.744,112.734,300.747,113.028,299.69,114.444"/>
											</g>
											<g>
												<path style="fill:#BC7E6D;" d="M286.877,117.331c1.054-1.425,0.764-3.424-0.653-4.479              c-0.832-0.621-1.868-0.769-2.797-0.501c0.065,2.132,0.364,4.263,0.929,6.252              C285.31,118.594,286.251,118.158,286.877,117.331z"/>
											</g>
										</g>
									</g>
								</g>
							</g>
							<g>
								<g>
									<path style="fill-rule:evenodd;clip-rule:evenodd;fill:#2F3F9A;" d="M343.379,143.435           c-3.003,2.431-19.591-2.869-20.342-5.464c-0.797-2.783,2.491-20.947,4.18-22.318c2.797-1.62,5.07,2.505,6.803,5.105           c2.94,4.403,5.403,9.331,7.656,14.461C342.922,138.034,345.425,141.785,343.379,143.435z"/>
								</g>
								<g>
									<path style="fill-rule:evenodd;clip-rule:evenodd;fill:#2F3F9A;" d="M323.454,137.438           c-0.033,4.071-3.923,18.777-6.518,18.717c-2.727-0.07-7.375-20.251-5.677-23.817           C314.728,132.225,321.292,134.641,323.454,137.438z"/>
								</g>
							</g>
						</g>
					</g>
				</g>
				<g>
					<g>
						<g>
							<path style="fill-rule:evenodd;clip-rule:evenodd;fill:#2F3F9A;" d="M292.139,86.087c2.749-5.067,5.517-10.028,8.419-14.77         l3.015-2.191l0.845-3.846c0.547-0.816,1.101-1.623,1.661-2.421c1.314-1.877,3.566-5.648,5.522-4.847         c1.339,0.551,1.589,2.668,1.77,3.805c0.298,1.86,0.495,3.716,0.639,5.56l-0.628,3.912l1.041,3.411         c0.117,2.464,0.208,4.87,0.288,7.255l-1.118,3.334l1.326,3.334c0.029,0.93,0.058,1.862,0.088,2.798         c-1.756,1.41-3.888,1.623-6.256,1.806C303.833,93.604,295.183,91.606,292.139,86.087z"/>
						</g>
						<g>
							<g>
								<path style="fill-rule:evenodd;clip-rule:evenodd;fill:#FFFFFF;" d="M300.361,92.072c0.589-2.777-2.962-5.326-5.288-3.344          c-0.134,0.114-0.257,0.234-0.369,0.358C296.314,90.412,298.301,91.394,300.361,92.072z"/>
							</g>
							<g>
								<path style="fill-rule:evenodd;clip-rule:evenodd;fill:#FFFFFF;" d="M308.75,93.228c0.762-0.059,1.496-0.125,2.205-0.229          c0.845-1.605,0.51-3.778-0.708-4.731c-2.171-1.694-4.889-0.658-5.807,1.16c-0.65,1.276-0.516,2.601,0.171,3.632          C306.122,93.268,307.548,93.32,308.75,93.228z"/>
							</g>
							<g>
								<path style="fill-rule:evenodd;clip-rule:evenodd;fill:#FFFFFF;" d="M297.749,86.148c-2.447-0.89-3.64-4.091-1.235-6.287          c1.722-1.585,5.521-0.813,6.133,1.999c0.322,1.435-0.389,3.556-2.271,4.341C299.799,86.437,299.009,86.604,297.749,86.148z"/>
							</g>
							<g>
								<path style="fill-rule:evenodd;clip-rule:evenodd;fill:#FFFFFF;" d="M314.708,81.956c-0.934,0.466-1.689,1.291-2.019,2.284          c-0.616,1.838,0.609,3.698,2.23,4.384C314.851,86.404,314.782,84.185,314.708,81.956z"/>
							</g>
							<g>
								<path style="fill-rule:evenodd;clip-rule:evenodd;fill:#FFFFFF;" d="M307.184,80.801c-1.798-0.732-2.595-2.866-1.71-4.542          c1.909-3.641,7.153-0.916,6.182,2.349C311.039,80.65,309.183,81.619,307.184,80.801z"/>
							</g>
							<g>
								<path style="fill-rule:evenodd;clip-rule:evenodd;fill:#FFFFFF;" d="M304.421,65.283c-1.318,1.965-2.604,3.978-3.862,6.035          c0.46,0.493,1.057,0.898,1.824,1.116c3.339,0.946,6.089-3.34,3.795-5.977C305.661,65.861,305.054,65.483,304.421,65.283z"/>
							</g>
							<g>
								<path style="fill-rule:evenodd;clip-rule:evenodd;fill:#FFFFFF;" d="M314.408,74.412c-0.115-2.313-0.224-4.664-0.409-7.033          c-1.028,0.156-1.996,0.778-2.608,2.026c-0.925,1.86-0.141,4.249,2.095,5.077c0.311,0.116,0.623,0.183,0.935,0.22          C314.416,74.604,314.413,74.509,314.408,74.412z"/>
							</g>
						</g>
					</g>
					<g>
						<path style="fill-rule:evenodd;clip-rule:evenodd;fill:#FF682E;" d="M308.653,58.572c-1.874-0.918-5.834-2.156-4.833-4.078        c1.05-1.994,4.569,1.132,5.876,2.301c0.037-0.907,0.107-1.865,0.234-3.194c0.123-1.204,0.269-3.965,1.868-3.34        c1.04,0.418,0.929,2.355,0.938,3.262c0.018,1.351-0.065,2.357-0.329,3.586c1.024-0.26,1.803-0.895,2.961-1.432        c0.825-0.383,2.396-1.226,3.207-0.424c1.388,1.377-2.922,3.346-3.527,3.571c1.159,0.344,3.661,0.833,3.293,2.166        c-0.299,1.024-1.805,1.128-2.787,1.088c-1.149-0.052-2.285-0.369-3.269-0.721c-0.183,0.996,0.846,3.729-0.406,4.988        c-0.199,0.205-0.755,0.324-1.006,0.244c-1.552-0.504-0.938-3.47-1.057-4.536c-1.112,0.539-2.516,2.501-3.86,2.295        c-0.862-0.131-1.272-0.89-1.015-1.637C305.485,61.122,307.55,59.53,308.653,58.572z"/>
					</g>
				</g>
			</g>
		</g>
	</g>
	<g>
		<g>
			<path style="fill-rule:evenodd;clip-rule:evenodd;fill:#FCB322;" d="M256.145,152.353c1.736-0.357,1.386,1.733,1.311,3.035     c-0.102,1.754,0.591,3.774,1.437,4.298c0.874,0.549,1.81,0.081,2.021,1.237c0.234,1.233-0.799,1.409-1.555,1.608     c-1.97,0.519-2.542,0.971-2.693,3.2c-0.107,1.631,0.304,3.36-1.209,3.394c-2.058,0.047-0.992-3.858-2.095-5.765     c-0.253-0.443-0.561-0.818-0.962-1.038c-0.459-0.252-2.125-0.218-2.241-1.444c-0.03-0.34,0.26-0.955,0.614-1.172     c0.658-0.391,1.02-0.097,1.472-0.229c1.564-0.466,2.234-2.394,2.57-4.256C255.054,153.906,254.927,152.606,256.145,152.353z"/>
		</g>
		<g>
			<path style="fill-rule:evenodd;clip-rule:evenodd;fill:#FCB322;" d="M67.821,242.754c1.733-0.359,1.386,1.733,1.309,3.035     c-0.1,1.752,0.593,3.772,1.439,4.3c0.871,0.547,1.81,0.076,2.018,1.235c0.234,1.228-0.799,1.409-1.552,1.608     c-1.974,0.517-2.542,0.971-2.692,3.2c-0.109,1.631,0.301,3.36-1.212,3.395c-2.058,0.049-0.989-3.856-2.097-5.767     c-0.25-0.44-0.556-0.815-0.959-1.036c-0.459-0.255-2.125-0.22-2.238-1.441c-0.03-0.343,0.257-0.955,0.614-1.172     c0.656-0.396,1.02-0.098,1.471-0.232c1.564-0.463,2.234-2.394,2.57-4.259C66.727,244.309,66.602,243.004,67.821,242.754z"/>
		</g>
		<g>
			<path style="fill-rule:evenodd;clip-rule:evenodd;fill:#FCB322;" d="M153.457,113.216c1.724-0.392,1.425,1.701,1.374,3.01     c-0.056,1.747,0.686,3.751,1.539,4.259c0.88,0.531,1.812,0.042,2.05,1.191c0.253,1.226-0.774,1.425-1.518,1.638     c-1.96,0.568-2.521,1.034-2.618,3.265c-0.072,1.629,0.378,3.355-1.135,3.422c-2.053,0.097-1.08-3.835-2.224-5.719     c-0.266-0.433-0.584-0.802-0.987-1.015c-0.468-0.239-2.132-0.167-2.268-1.39c-0.042-0.338,0.234-0.957,0.584-1.182     c0.646-0.415,1.019-0.123,1.467-0.269c1.555-0.498,2.178-2.44,2.472-4.314C152.398,114.796,152.241,113.496,153.457,113.216z"/>
		</g>
		<g>
			<path style="fill-rule:evenodd;clip-rule:evenodd;fill:#FCB322;" d="M425.132,177.901c1.726-0.392,1.427,1.701,1.381,3.01     c-0.06,1.747,0.681,3.756,1.536,4.263c0.878,0.528,1.812,0.037,2.05,1.189c0.255,1.226-0.774,1.425-1.52,1.64     c-1.96,0.563-2.521,1.031-2.618,3.265c-0.07,1.631,0.378,3.35-1.128,3.418c-2.058,0.1-1.087-3.835-2.231-5.714     c-0.264-0.436-0.582-0.806-0.987-1.017c-0.461-0.241-2.132-0.167-2.266-1.393c-0.039-0.338,0.232-0.957,0.584-1.182     c0.649-0.415,1.017-0.121,1.467-0.269c1.552-0.498,2.176-2.437,2.472-4.314C424.075,179.484,423.92,178.182,425.132,177.901z"/>
		</g>
		<g>
			<path style="fill-rule:evenodd;clip-rule:evenodd;fill:#FCB322;" d="M477.989,139.82c1.469-0.334,1.212,1.448,1.173,2.565     c-0.051,1.49,0.584,3.195,1.311,3.631c0.751,0.449,1.543,0.035,1.749,1.017c0.213,1.043-0.658,1.212-1.295,1.397     c-1.675,0.482-2.148,0.876-2.234,2.78c-0.058,1.39,0.324,2.852-0.964,2.913c-1.752,0.086-0.922-3.267-1.898-4.868     c-0.229-0.371-0.496-0.684-0.846-0.867c-0.392-0.209-1.812-0.144-1.928-1.186c-0.033-0.292,0.195-0.813,0.498-1.013     c0.549-0.35,0.864-0.097,1.244-0.222c1.33-0.429,1.863-2.081,2.113-3.68C477.085,141.164,476.951,140.057,477.989,139.82z"/>
		</g>
		<g>
			<path style="fill-rule:evenodd;clip-rule:evenodd;fill:#FCB322;" d="M75.729,28.348c1.476-0.336,1.214,1.449,1.177,2.564     c-0.051,1.491,0.582,3.199,1.312,3.634c0.748,0.448,1.541,0.033,1.745,1.013c0.218,1.043-0.663,1.214-1.297,1.397     c-1.668,0.482-2.146,0.878-2.227,2.782c-0.06,1.389,0.32,2.856-0.966,2.915c-1.754,0.084-0.92-3.268-1.9-4.87     c-0.225-0.371-0.496-0.685-0.844-0.866c-0.391-0.207-1.812-0.144-1.928-1.186c-0.037-0.292,0.197-0.815,0.498-1.01     c0.551-0.35,0.869-0.101,1.247-0.226c1.328-0.426,1.856-2.079,2.106-3.678C74.83,29.692,74.695,28.583,75.729,28.348z"/>
		</g>
		<g>
			<path style="fill-rule:evenodd;clip-rule:evenodd;fill:#FCB322;" d="M244.945,127.167c1.175,0.32,2.845,0.276,3.019,1.719     c0.222,1.826-2.118,1.83-3.033,2.718c-1.548,1.492-1.008,4.46-1.494,7c-0.125,0.658-0.216,1.557-1.27,1.689     c-1.353,0.176-1.62-1.138-1.965-2.679c-0.626-2.746-1.717-5.088-3.557-5.955c-1.117-0.528-2.394-0.079-2.584-1.62     c-0.185-1.525,1.244-1.404,2.382-2.081c1.807-1.077,2.155-3.598,2.433-6.089c0.06-0.554,0.005-1.291,0.137-1.587     c0.484-1.061,2.294-1.332,2.991-0.137c0.392,0.676,0.223,1.659,0.378,2.544C242.736,124.704,243.531,126.115,244.945,127.167z"/>
		</g>
		<g>
			<path style="fill-rule:evenodd;clip-rule:evenodd;fill:#FCB322;" d="M54.94,187.068c1.175,0.325,2.848,0.278,3.019,1.722     c0.222,1.826-2.115,1.831-3.033,2.713c-1.548,1.495-1.006,4.467-1.49,7.004c-0.13,0.658-0.218,1.552-1.272,1.689     c-1.353,0.176-1.622-1.142-1.965-2.676c-0.626-2.748-1.715-5.091-3.557-5.957c-1.119-0.528-2.394-0.084-2.586-1.62     c-0.181-1.527,1.247-1.407,2.382-2.083c1.807-1.077,2.16-3.603,2.433-6.087c0.06-0.556,0.005-1.291,0.139-1.585     c0.484-1.066,2.294-1.332,2.994-0.141c0.387,0.674,0.223,1.661,0.375,2.542C52.736,184.605,53.527,186.02,54.94,187.068z"/>
		</g>
	</g>
</g>















</svg>
