<svg width="448" height="113" viewBox="0 0 448 113" fill="none" xmlns="http://www.w3.org/2000/svg">
<path d="M23.4 41.6H31.84C33.9467 41.6 35.7333 41.8267 37.2 42.28C38.6933 42.7067 39.8933 43.5467 40.8 44.8C41.7067 46.0533 42.16 47.8133 42.16 50.08C42.16 52 41.7467 53.4933 40.92 54.56C40.0933 55.6267 38.92 56.3067 37.4 56.6C39.2667 56.84 40.6933 57.6267 41.68 58.96C42.6667 60.2933 43.16 62.1067 43.16 64.4C43.16 70.8 39.8933 74 33.36 74H23.4V41.6ZM31.96 54.56C33.48 54.56 34.5067 54.2133 35.04 53.52C35.6 52.8267 35.88 51.7467 35.88 50.28C35.88 49 35.5333 48.04 34.84 47.4C34.1467 46.7333 33.1333 46.4 31.8 46.4H30.56V54.56H31.96ZM32.08 69C33.6 69 34.6667 68.6267 35.28 67.88C35.92 67.1067 36.24 65.9067 36.24 64.28C36.24 62.44 35.92 61.1467 35.28 60.4C34.6667 59.6533 33.5867 59.28 32.04 59.28H30.56V69H32.08ZM50.6356 74.4C49.249 74.4 48.1823 73.9067 47.4356 72.92C46.689 71.9067 46.3156 70.6 46.3156 69V50.88H52.8356V68.24C52.8356 68.8267 52.9423 69.2667 53.1556 69.56C53.369 69.8533 53.7156 70 54.1956 70C54.6223 70 55.2623 69.76 56.1156 69.28V50.88H62.5956V74H56.1156V71.88C54.3023 73.56 52.4756 74.4 50.6356 74.4ZM66.7119 42.44H73.2719V46.96H66.7119V42.44ZM66.7519 50.88H73.2719V74H66.7519V50.88ZM77.5778 41.6H84.0578V74H77.5778V41.6ZM93.2744 74.4C91.541 74.4 90.2077 73.8 89.2744 72.6C88.3677 71.4 87.9144 69.6267 87.9144 67.28V57.72C87.9144 55.5067 88.3677 53.7467 89.2744 52.44C90.2077 51.1333 91.541 50.48 93.2744 50.48C94.901 50.48 96.421 51.0933 97.8344 52.32V41.6H104.354V74H97.8344V72.2C96.3144 73.6667 94.7944 74.4 93.2744 74.4ZM96.1144 70.24C96.621 70.24 97.1944 70.04 97.8344 69.64V55.04C97.1944 54.6933 96.6344 54.52 96.1544 54.52C95.5944 54.52 95.1677 54.76 94.8744 55.24C94.6077 55.6933 94.4744 56.2933 94.4744 57.04V67.68C94.4744 68.4533 94.6077 69.08 94.8744 69.56C95.141 70.0133 95.5544 70.24 96.1144 70.24ZM119.266 76.2C120.546 76.2 121.479 76.0533 122.066 75.76C122.679 75.4933 122.986 74.9867 122.986 74.24C122.986 73.5733 122.706 72.28 122.146 70.36L116.706 50.88H122.826L125.746 64.24L127.946 50.88H134.106L128.786 74.56C128.279 76.8267 127.359 78.4133 126.026 79.32C124.693 80.2533 122.933 80.72 120.746 80.72H119.266V76.2ZM144.156 74.4C141.622 74.4 139.636 73.76 138.196 72.48C136.782 71.2 136.076 69.32 136.076 66.84V58.04C136.076 55.56 136.782 53.68 138.196 52.4C139.636 51.12 141.622 50.48 144.156 50.48C146.689 50.48 148.676 51.1333 150.116 52.44C151.556 53.72 152.276 55.5867 152.276 58.04V66.84C152.276 69.2933 151.556 71.1733 150.116 72.48C148.676 73.76 146.689 74.4 144.156 74.4ZM144.196 70.08C144.809 70.08 145.236 69.8533 145.476 69.4C145.716 68.92 145.836 68.2133 145.836 67.28V57.6C145.836 56.6667 145.716 55.9733 145.476 55.52C145.236 55.04 144.809 54.8 144.196 54.8C143.582 54.8 143.142 55.04 142.876 55.52C142.636 56 142.516 56.6933 142.516 57.6V67.28C142.516 68.2133 142.636 68.92 142.876 69.4C143.142 69.8533 143.582 70.08 144.196 70.08ZM159.972 74.4C158.585 74.4 157.518 73.9067 156.772 72.92C156.025 71.9067 155.652 70.6 155.652 69V50.88H162.172V68.24C162.172 68.8267 162.278 69.2667 162.492 69.56C162.705 69.8533 163.052 70 163.532 70C163.958 70 164.598 69.76 165.452 69.28V50.88H171.932V74H165.452V71.88C163.638 73.56 161.812 74.4 159.972 74.4ZM176.128 50.88H182.648V54.72C183.448 53.3067 184.221 52.2667 184.968 51.6C185.714 50.9333 186.594 50.6 187.608 50.6C187.981 50.6 188.314 50.64 188.608 50.72V57.2C187.808 56.88 187.101 56.72 186.488 56.72C185.074 56.72 183.794 57.4667 182.648 58.96V74H176.128V50.88ZM208.755 74.24C207.048 74.24 205.728 74 204.795 73.52C203.861 73.0133 203.208 72.2933 202.835 71.36C202.461 70.4267 202.275 69.2133 202.275 67.72V55.16H200.035V50.88H202.275V43.84H208.875V50.88H212.155V55.16H208.875V67.08C208.875 67.72 209.048 68.2 209.395 68.52C209.768 68.8133 210.275 68.96 210.915 68.96C211.448 68.96 212.035 68.9067 212.675 68.8V73.92C211.395 74.1333 210.088 74.24 208.755 74.24ZM215.815 50.88H222.335V54.72C223.135 53.3067 223.909 52.2667 224.655 51.6C225.402 50.9333 226.282 50.6 227.295 50.6C227.669 50.6 228.002 50.64 228.295 50.72V57.2C227.495 56.88 226.789 56.72 226.175 56.72C224.762 56.72 223.482 57.4667 222.335 58.96V74H215.815V50.88ZM235.691 74.4C234.571 74.4 233.597 74.1333 232.771 73.6C231.971 73.04 231.357 72.3333 230.931 71.48C230.531 70.6 230.331 69.6933 230.331 68.76C230.331 66.9733 230.784 65.5067 231.691 64.36C232.597 63.2133 233.677 62.32 234.931 61.68C236.211 61.04 237.851 60.3733 239.851 59.68V57.36C239.851 56.6933 239.744 56.1867 239.531 55.84C239.344 55.4933 238.997 55.32 238.491 55.32C237.984 55.32 237.624 55.48 237.411 55.8C237.197 56.12 237.077 56.5733 237.051 57.16L236.891 58.84L230.811 58.6C230.917 55.8267 231.651 53.7867 233.011 52.48C234.371 51.1467 236.397 50.48 239.091 50.48C241.357 50.48 243.091 51.12 244.291 52.4C245.491 53.6533 246.091 55.3333 246.091 57.44V68.24C246.091 70.5867 246.224 72.5067 246.491 74H240.651C240.411 72.2133 240.237 71.12 240.131 70.72C239.811 71.7867 239.277 72.6667 238.531 73.36C237.784 74.0533 236.837 74.4 235.691 74.4ZM238.011 70C238.677 70 239.291 69.6133 239.851 68.84V62.52C238.651 63.2133 237.744 63.9467 237.131 64.72C236.517 65.4667 236.211 66.3867 236.211 67.48C236.211 68.2533 236.371 68.8667 236.691 69.32C237.011 69.7733 237.451 70 238.011 70ZM257.474 74.4C254.967 74.4 253.007 73.72 251.594 72.36C250.181 71 249.474 69.1067 249.474 66.68V58.2C249.474 55.7467 250.167 53.8533 251.554 52.52C252.967 51.16 254.941 50.48 257.474 50.48C259.981 50.48 261.901 51.0667 263.234 52.24C264.594 53.4133 265.274 55.1467 265.274 57.44V59.88H258.994V57.24C258.994 56.36 258.861 55.76 258.594 55.44C258.354 55.0933 257.981 54.92 257.474 54.92C256.967 54.92 256.594 55.1333 256.354 55.56C256.141 55.96 256.034 56.6533 256.034 57.64V67.24C256.034 68.2267 256.154 68.92 256.394 69.32C256.634 69.72 257.007 69.92 257.514 69.92C258.021 69.92 258.394 69.7467 258.634 69.4C258.874 69.0533 258.994 68.4667 258.994 67.64V64.56H265.274V67.36C265.274 69.6533 264.594 71.4 263.234 72.6C261.874 73.8 259.954 74.4 257.474 74.4ZM268.665 41.6H275.145V59.56L280.825 50.88H288.145L281.985 60.36L288.065 74H280.945L276.865 63L275.145 65.2V74H268.665V41.6Z" fill="#2E2D2D"/>
<path d="M408.721 91.0261L407.66 92.0868L380.111 64.5382C379.861 64.2883 379.525 64.1526 379.179 64.1526C379.065 64.1526 378.951 64.1672 378.839 64.1972L365.667 67.7268L364.83 67.951L364.218 67.3386L346.897 50.0168L346.284 49.4044L346.509 48.5679L348.775 40.1108L349.447 37.6015L351.284 39.4383L363.729 51.8806C363.729 51.8807 363.729 51.8808 363.729 51.8809C364.062 52.2137 364.546 52.3433 365 52.2216L365.001 52.2215L377.061 48.9908L377.061 48.9908C377.515 48.8693 377.87 48.5146 377.992 48.0599L408.721 91.0261ZM408.721 91.0261L407.66 92.0868C409.452 93.878 411.841 94.8676 414.375 94.8676H414.375H414.375H414.375H414.375H414.375H414.375H414.375H414.375H414.375H414.375H414.375H414.375C416.909 94.8676 419.299 93.8781 421.091 92.0859C421.091 92.0858 421.091 92.0857 421.091 92.0857C421.091 92.0856 421.091 92.0855 421.091 92.0854C424.796 88.3818 424.796 82.3586 421.092 78.6539L421.091 78.6537L393.541 51.1074C393.541 51.1074 393.541 51.1074 393.541 51.1074C393.208 50.7747 393.079 50.2901 393.2 49.8362L393.2 49.836L396.73 36.6664L396.954 35.8298L396.341 35.2174L379.019 17.8965L378.407 17.2841L377.57 17.5083L369.112 19.7747L366.602 20.4472L368.44 22.2843L380.883 34.7276L380.883 34.728C381.215 35.0597 381.345 35.5442 381.224 35.9988C381.224 35.9989 381.224 35.9989 381.224 35.999L377.992 48.0597L408.721 91.0261ZM380.792 13.825L379.731 14.8857L399.353 34.5055C399.353 34.5055 399.353 34.5055 399.353 34.5055C399.353 34.5056 399.354 34.5057 399.354 34.5058C399.686 34.8381 399.815 35.3228 399.694 35.7772C399.694 35.7773 399.694 35.7774 399.694 35.7775L396.165 48.9468L395.94 49.7834L396.553 50.3958L422.954 76.7929C422.954 76.793 422.954 76.793 422.954 76.7931C427.683 81.5231 427.682 89.2197 422.953 93.9474L422.953 93.9475C420.66 96.2402 417.618 97.5 414.375 97.5H414.375C414.375 97.5 414.375 97.5 414.375 97.5C411.132 97.4996 408.091 96.2404 405.799 93.9482L379.399 67.549L378.786 66.9367L377.95 67.1608L364.778 70.6904L364.778 70.6905C364.324 70.8122 363.839 70.6825 363.506 70.3498C363.506 70.3498 363.506 70.3498 363.506 70.3498L343.886 50.7286L343.885 50.7285C343.553 50.3961 343.423 49.9117 343.545 49.4572L347.494 34.7183L347.494 34.7181C347.616 34.2642 347.971 33.9094 348.425 33.7878L348.425 33.7876C348.88 33.6657 349.364 33.7954 349.697 34.1283L364.441 48.8698L365.053 49.482L365.89 49.258L374.809 46.8687L375.646 46.6446L375.87 45.808L378.259 36.8879L378.484 36.0514L377.871 35.439L363.129 20.6965L363.128 20.6965C362.796 20.3643 362.666 19.8798 362.788 19.4253C362.91 18.971 363.264 18.6162 363.719 18.4944L378.459 14.545L378.46 14.545C378.914 14.4232 379.399 14.553 379.731 14.8857L380.792 13.825Z" stroke="#2E2D2D" stroke-width="3"/>
</svg>
