<svg width="448" height="113" viewBox="0 0 448 113" fill="none" xmlns="http://www.w3.org/2000/svg">
<path d="M43 75.48C39.9067 75.48 37.6 74.6667 36.08 73.04C34.5867 71.3867 33.7867 68.7733 33.68 65.2L39.8 64.28C39.8267 66.3333 40.0667 67.8133 40.52 68.72C41 69.6 41.7067 70.04 42.64 70.04C43.84 70.04 44.44 69.2533 44.44 67.68C44.44 66.4267 44.1467 65.3467 43.56 64.44C43 63.5333 42.1067 62.56 40.88 61.52L38.08 59.08C36.6933 57.9067 35.6133 56.6667 34.84 55.36C34.0933 54.0267 33.72 52.4533 33.72 50.64C33.72 47.92 34.52 45.8267 36.12 44.36C37.7467 42.8933 39.9733 42.16 42.8 42.16C45.8667 42.16 47.9467 43.0533 49.04 44.84C50.16 46.6267 50.76 48.8 50.84 51.36L44.68 52.12C44.6267 50.44 44.4667 49.24 44.2 48.52C43.96 47.7733 43.4133 47.4 42.56 47.4C41.9467 47.4 41.4667 47.6667 41.12 48.2C40.8 48.7067 40.64 49.28 40.64 49.92C40.64 51.0133 40.88 51.9333 41.36 52.68C41.8667 53.4267 42.6667 54.28 43.76 55.24L46.44 57.6C48.04 58.96 49.28 60.4 50.16 61.92C51.04 63.44 51.48 65.24 51.48 67.32C51.48 68.84 51.12 70.2267 50.4 71.48C49.7067 72.7067 48.72 73.68 47.44 74.4C46.16 75.12 44.68 75.48 43 75.48ZM62.1069 75.4C59.6002 75.4 57.6402 74.72 56.2269 73.36C54.8135 72 54.1069 70.1067 54.1069 67.68V59.2C54.1069 56.7467 54.8002 54.8533 56.1869 53.52C57.6002 52.16 59.5735 51.48 62.1069 51.48C64.6135 51.48 66.5335 52.0667 67.8669 53.24C69.2269 54.4133 69.9069 56.1467 69.9069 58.44V60.88H63.6269V58.24C63.6269 57.36 63.4935 56.76 63.2269 56.44C62.9869 56.0933 62.6135 55.92 62.1069 55.92C61.6002 55.92 61.2269 56.1333 60.9869 56.56C60.7735 56.96 60.6669 57.6533 60.6669 58.64V68.24C60.6669 69.2267 60.7869 69.92 61.0269 70.32C61.2669 70.72 61.6402 70.92 62.1469 70.92C62.6535 70.92 63.0269 70.7467 63.2669 70.4C63.5069 70.0533 63.6269 69.4667 63.6269 68.64V65.56H69.9069V68.36C69.9069 70.6533 69.2269 72.4 67.8669 73.6C66.5069 74.8 64.5869 75.4 62.1069 75.4ZM78.0578 75.4C76.9378 75.4 75.9645 75.1333 75.1378 74.6C74.3378 74.04 73.7245 73.3333 73.2978 72.48C72.8978 71.6 72.6978 70.6933 72.6978 69.76C72.6978 67.9733 73.1511 66.5067 74.0578 65.36C74.9645 64.2133 76.0445 63.32 77.2978 62.68C78.5778 62.04 80.2178 61.3733 82.2178 60.68V58.36C82.2178 57.6933 82.1111 57.1867 81.8978 56.84C81.7111 56.4933 81.3645 56.32 80.8578 56.32C80.3511 56.32 79.9911 56.48 79.7778 56.8C79.5645 57.12 79.4445 57.5733 79.4178 58.16L79.2578 59.84L73.1778 59.6C73.2845 56.8267 74.0178 54.7867 75.3778 53.48C76.7378 52.1467 78.7645 51.48 81.4578 51.48C83.7245 51.48 85.4578 52.12 86.6578 53.4C87.8578 54.6533 88.4578 56.3333 88.4578 58.44V69.24C88.4578 71.5867 88.5911 73.5067 88.8578 75H83.0178C82.7778 73.2133 82.6045 72.12 82.4978 71.72C82.1778 72.7867 81.6445 73.6667 80.8978 74.36C80.1511 75.0533 79.2045 75.4 78.0578 75.4ZM80.3778 71C81.0445 71 81.6578 70.6133 82.2178 69.84V63.52C81.0178 64.2133 80.1111 64.9467 79.4978 65.72C78.8845 66.4667 78.5778 67.3867 78.5778 68.48C78.5778 69.2533 78.7378 69.8667 79.0578 70.32C79.3778 70.7733 79.8178 71 80.3778 71ZM90.6813 51.88H96.9213L98.8413 66.64L100.601 51.88H106.841L102.081 75H95.3213L90.6813 51.88ZM116.717 75.4C114.184 75.4 112.211 74.7333 110.797 73.4C109.384 72.04 108.677 70.1333 108.677 67.68V59.2C108.677 56.7467 109.384 54.8533 110.797 53.52C112.211 52.16 114.184 51.48 116.717 51.48C119.277 51.48 121.197 52.1333 122.477 53.44C123.757 54.7467 124.397 56.6667 124.397 59.2V63.84H115.117V68.28C115.117 69.9333 115.651 70.76 116.717 70.76C117.837 70.76 118.397 70.0133 118.397 68.52V66.08H124.397V68.32C124.397 70.64 123.717 72.4 122.357 73.6C121.024 74.8 119.144 75.4 116.717 75.4ZM118.397 60.8V58.48C118.397 57.6267 118.237 57.0267 117.917 56.68C117.624 56.3067 117.211 56.12 116.677 56.12C116.171 56.12 115.784 56.32 115.517 56.72C115.251 57.12 115.117 57.8267 115.117 58.84V60.8H118.397ZM127.946 51.88H134.466V54.2C136.28 52.3867 138.133 51.48 140.026 51.48C141.413 51.48 142.466 51.9867 143.186 53C143.933 53.9867 144.306 55.28 144.306 56.88V75H137.826V57.8C137.826 57.2133 137.72 56.7867 137.506 56.52C137.32 56.2267 136.986 56.08 136.506 56.08C135.973 56.08 135.293 56.36 134.466 56.92V75H127.946V51.88ZM155.74 83C153.073 83 150.98 82.6 149.46 81.8C147.94 81.0267 147.18 79.8533 147.18 78.28C147.18 76.3067 148.38 74.7733 150.78 73.68C148.646 73.0933 147.58 71.8667 147.58 70C147.58 69.12 147.78 68.3467 148.18 67.68C148.606 67.0133 149.26 66.2933 150.14 65.52C148.62 64.16 147.86 62.16 147.86 59.52C147.86 56.9333 148.566 54.9467 149.98 53.56C151.42 52.1733 153.473 51.48 156.14 51.48C158.513 51.48 160.34 52.08 161.62 53.28C162.233 52.2933 163.166 51.4933 164.42 50.88L165.26 50.48L166.78 53.6C166.406 53.7333 165.833 53.9733 165.06 54.32C164.313 54.64 163.686 54.9467 163.18 55.24C163.793 56.52 164.1 57.96 164.1 59.56C164.1 62.0933 163.42 64.0533 162.06 65.44C160.726 66.8267 158.753 67.52 156.14 67.52C154.7 67.52 153.38 67.3067 152.18 66.88C151.78 67.44 151.58 67.9067 151.58 68.28C151.58 68.6 151.74 68.8533 152.06 69.04C152.406 69.2267 152.98 69.3733 153.78 69.48L159.86 70.16C161.806 70.3733 163.246 71 164.18 72.04C165.14 73.08 165.62 74.4667 165.62 76.2C165.62 78.4667 164.833 80.16 163.26 81.28C161.713 82.4267 159.206 83 155.74 83ZM156.14 63.64C156.86 63.64 157.34 63.3467 157.58 62.76C157.82 62.1733 157.94 61.0933 157.94 59.52C157.94 57.9467 157.82 56.8667 157.58 56.28C157.34 55.6667 156.86 55.36 156.14 55.36C155.42 55.36 154.94 55.6533 154.7 56.24C154.46 56.8267 154.34 57.92 154.34 59.52C154.34 61.0667 154.46 62.1467 154.7 62.76C154.94 63.3467 155.42 63.64 156.14 63.64ZM156.58 78.28C158.153 78.28 159.3 78.1467 160.02 77.88C160.766 77.6133 161.14 77.1333 161.14 76.44C161.14 75.88 160.886 75.4667 160.38 75.2C159.9 74.96 158.993 74.7733 157.66 74.64L153.38 74.2C152.473 74.8933 152.02 75.6133 152.02 76.36C152.02 77.0267 152.366 77.5067 153.06 77.8C153.78 78.12 154.953 78.28 156.58 78.28ZM175.78 75.4C173.246 75.4 171.273 74.7333 169.86 73.4C168.446 72.04 167.74 70.1333 167.74 67.68V59.2C167.74 56.7467 168.446 54.8533 169.86 53.52C171.273 52.16 173.246 51.48 175.78 51.48C178.34 51.48 180.26 52.1333 181.54 53.44C182.82 54.7467 183.46 56.6667 183.46 59.2V63.84H174.18V68.28C174.18 69.9333 174.713 70.76 175.78 70.76C176.9 70.76 177.46 70.0133 177.46 68.52V66.08H183.46V68.32C183.46 70.64 182.78 72.4 181.42 73.6C180.086 74.8 178.206 75.4 175.78 75.4ZM177.46 60.8V58.48C177.46 57.6267 177.3 57.0267 176.98 56.68C176.686 56.3067 176.273 56.12 175.74 56.12C175.233 56.12 174.846 56.32 174.58 56.72C174.313 57.12 174.18 57.8267 174.18 58.84V60.8H177.46ZM198.083 56.28H195.883V51.88H198.083V50.16C198.083 48.6133 198.23 47.3733 198.523 46.44C198.816 45.48 199.416 44.7333 200.323 44.2C201.256 43.6667 202.616 43.4 204.403 43.4C205.523 43.4 206.563 43.4667 207.523 43.6V48.44C206.936 48.3067 206.47 48.24 206.123 48.24C205.11 48.24 204.603 48.84 204.603 50.04V51.88H207.523V56.28H204.603V75H198.083V56.28ZM217.656 75.4C215.122 75.4 213.136 74.76 211.696 73.48C210.282 72.2 209.576 70.32 209.576 67.84V59.04C209.576 56.56 210.282 54.68 211.696 53.4C213.136 52.12 215.122 51.48 217.656 51.48C220.189 51.48 222.176 52.1333 223.616 53.44C225.056 54.72 225.776 56.5867 225.776 59.04V67.84C225.776 70.2933 225.056 72.1733 223.616 73.48C222.176 74.76 220.189 75.4 217.656 75.4ZM217.696 71.08C218.309 71.08 218.736 70.8533 218.976 70.4C219.216 69.92 219.336 69.2133 219.336 68.28V58.6C219.336 57.6667 219.216 56.9733 218.976 56.52C218.736 56.04 218.309 55.8 217.696 55.8C217.082 55.8 216.642 56.04 216.376 56.52C216.136 57 216.016 57.6933 216.016 58.6V68.28C216.016 69.2133 216.136 69.92 216.376 70.4C216.642 70.8533 217.082 71.08 217.696 71.08ZM229.472 51.88H235.992V55.72C236.792 54.3067 237.565 53.2667 238.312 52.6C239.058 51.9333 239.938 51.6 240.952 51.6C241.325 51.6 241.658 51.64 241.952 51.72V58.2C241.152 57.88 240.445 57.72 239.832 57.72C238.418 57.72 237.138 58.4667 235.992 59.96V75H229.472V51.88ZM254.938 51.88H261.458V53.56C262.205 52.8667 263.018 52.3467 263.898 52C264.778 51.6533 265.632 51.48 266.458 51.48C268.138 51.48 269.378 52.1067 270.178 53.36C271.005 54.6133 271.418 56.2533 271.418 58.28V68.24C271.418 70.4533 270.978 72.2 270.098 73.48C269.218 74.76 267.978 75.4 266.378 75.4C264.752 75.4 263.112 74.68 261.458 73.24V82.6H254.938V51.88ZM263.178 71.2C263.765 71.2 264.192 70.96 264.458 70.48C264.752 70 264.898 69.3733 264.898 68.6V57.8C264.898 57.1067 264.765 56.5333 264.498 56.08C264.232 55.6267 263.832 55.4 263.298 55.4C262.658 55.4 262.045 55.6667 261.458 56.2V70.6C262.072 71 262.645 71.2 263.178 71.2ZM279.894 75.4C278.774 75.4 277.8 75.1333 276.974 74.6C276.174 74.04 275.56 73.3333 275.134 72.48C274.734 71.6 274.534 70.6933 274.534 69.76C274.534 67.9733 274.987 66.5067 275.894 65.36C276.8 64.2133 277.88 63.32 279.134 62.68C280.414 62.04 282.054 61.3733 284.054 60.68V58.36C284.054 57.6933 283.947 57.1867 283.734 56.84C283.547 56.4933 283.2 56.32 282.694 56.32C282.187 56.32 281.827 56.48 281.614 56.8C281.4 57.12 281.28 57.5733 281.254 58.16L281.094 59.84L275.014 59.6C275.12 56.8267 275.854 54.7867 277.214 53.48C278.574 52.1467 280.6 51.48 283.294 51.48C285.56 51.48 287.294 52.12 288.494 53.4C289.694 54.6533 290.294 56.3333 290.294 58.44V69.24C290.294 71.5867 290.427 73.5067 290.694 75H284.854C284.614 73.2133 284.44 72.12 284.334 71.72C284.014 72.7867 283.48 73.6667 282.734 74.36C281.987 75.0533 281.04 75.4 279.894 75.4ZM282.214 71C282.88 71 283.494 70.6133 284.054 69.84V63.52C282.854 64.2133 281.947 64.9467 281.334 65.72C280.72 66.4667 280.414 67.3867 280.414 68.48C280.414 69.2533 280.574 69.8667 280.894 70.32C281.214 70.7733 281.654 71 282.214 71ZM294.237 51.88H300.757V55.72C301.557 54.3067 302.331 53.2667 303.077 52.6C303.824 51.9333 304.704 51.6 305.717 51.6C306.091 51.6 306.424 51.64 306.717 51.72V58.2C305.917 57.88 305.211 57.72 304.597 57.72C303.184 57.72 301.904 58.4667 300.757 59.96V75H294.237V51.88ZM316.63 75.24C314.923 75.24 313.603 75 312.67 74.52C311.736 74.0133 311.083 73.2933 310.71 72.36C310.336 71.4267 310.15 70.2133 310.15 68.72V56.16H307.91V51.88H310.15V44.84H316.75V51.88H320.03V56.16H316.75V68.08C316.75 68.72 316.923 69.2 317.27 69.52C317.643 69.8133 318.15 69.96 318.79 69.96C319.323 69.96 319.91 69.9067 320.55 69.8V74.92C319.27 75.1333 317.963 75.24 316.63 75.24ZM330.73 75.4C328.677 75.4 326.97 74.9467 325.61 74.04C324.277 73.1067 323.197 71.6267 322.37 69.6L326.81 67.64C327.237 68.7067 327.73 69.5333 328.29 70.12C328.877 70.7067 329.517 71 330.21 71C331.224 71 331.73 70.6 331.73 69.8C331.73 69.2133 331.53 68.6933 331.13 68.24C330.73 67.76 329.864 66.9733 328.53 65.88L326.85 64.48C325.464 63.3067 324.45 62.24 323.81 61.28C323.197 60.32 322.89 59.1733 322.89 57.84C322.89 56.6133 323.21 55.52 323.85 54.56C324.517 53.6 325.397 52.8533 326.49 52.32C327.584 51.76 328.757 51.48 330.01 51.48C331.904 51.48 333.477 52 334.73 53.04C336.01 54.0533 336.917 55.52 337.45 57.44L333.25 59.36C332.984 58.5067 332.57 57.7467 332.01 57.08C331.45 56.3867 330.837 56.04 330.17 56.04C329.744 56.04 329.397 56.16 329.13 56.4C328.89 56.64 328.77 56.96 328.77 57.36C328.77 57.84 329.024 58.36 329.53 58.92C330.064 59.48 330.89 60.2133 332.01 61.12L333.65 62.56C334.984 63.68 336.01 64.7333 336.73 65.72C337.45 66.68 337.81 67.8133 337.81 69.12C337.81 70.4267 337.477 71.56 336.81 72.52C336.17 73.4533 335.304 74.1733 334.21 74.68C333.144 75.16 331.984 75.4 330.73 75.4Z" fill="#2E2D2D"/>
<path d="M370 22H393.818M417 22H393.818M393.818 22V54.029M393.818 54.029H370V79.1594L393.818 90L417 79.1594V54.029H393.818Z" stroke="#2E2D2D" stroke-width="5" stroke-linejoin="round"/>
</svg>
