<svg width="431" height="132" viewBox="0 0 431 132" fill="none" xmlns="http://www.w3.org/2000/svg">
<rect width="431" height="132" fill="white"/>
<path d="M11.0702 9H54.7135L56.127 14.3403L49.6188 33.166H23.9394L18.8153 48H2L12.4249 17.6846L14.7514 23.0249L12.955 16.2282L11.0702 9ZM37.0736 23.7801L39.5178 16.7137H29.623L26.5898 25.4523H42.8161L37.0736 23.7801Z" fill="#F5D21F"/>
<path d="M57.4579 9H78.6611L68.4424 38.6141L61.5513 40.2863H77.7482L80.9581 31.0083H91.2063L93.5917 40.1245L93.5623 40.2863H93.6211L90.9708 48H48.3877L58.8126 17.6846L61.1391 23.0249L59.3427 16.2282L57.4579 9Z" fill="#F5D21F"/>
<path d="M106.141 40.2863H122.072L119.717 31.278L113.974 38.3983L106.141 40.2863ZM138.888 48H91.1806L115.27 18.0083L117.802 23.888L116.035 17.0913L113.915 9H128.698L138.888 48Z" fill="#F5D21F"/>
<path d="M149.888 9H171.091L176.127 28.3112L178.689 38.2905L177.629 30.361L177.335 28.0954L183.902 9H197.065L183.607 48H166.468L164.672 41.1494H164.701L160.49 24.805L161.55 32.7344L161.933 35.5394L157.633 48H140.818L151.243 17.6846L153.569 23.0249L151.773 16.2282L149.888 9Z" fill="#F5D21F"/>
<path d="M197.857 9H241.471L238.82 16.7137H216.41L213.377 25.4523H230.81L228.16 33.166H210.726L208.841 38.6141L201.95 40.2863H234.02L231.37 48H193.145L191.26 40.7718L199.212 17.6846L201.509 23.0249L199.742 16.2282L197.857 9Z" fill="#F5D21F"/>
<path d="M243.279 9H285.773L287.776 16.6598H267.721L274.288 18.6017L264.158 48H247.313L258.121 16.6598H245.311L245.163 16.2282L243.279 9Z" fill="#F5D21F"/>
<path d="M287.953 40.2863H303.885L301.529 31.278L295.786 38.3983L287.953 40.2863ZM320.7 48H272.993L297.082 18.0083L299.615 23.888L297.848 17.0913L295.727 9H310.511L320.7 48Z" fill="#F5D21F"/>
<path d="M331.7 9H375.344L376.757 14.3403L370.249 33.166H365.949L369.807 48H355.024L351.549 34.6764L351.166 33.166H344.57L339.446 48H322.63L333.055 17.6846L335.382 23.0249L333.585 16.2282L331.7 9ZM357.704 23.7801L360.148 16.7137H350.253L347.22 25.4523H363.446L357.704 23.7801Z" fill="#F5D21F"/>
<path d="M419 9L387.666 48H372.589L377.595 41.7967L386.695 30.7386L393.232 22.8091L384.368 32.195L382.218 23.888L380.451 17.1452L378.331 9H393.114L395.765 19.1411L403.952 9H419Z" fill="#F5D21F"/>
<path d="M13.0702 10H56.7135L58.127 15.3403L51.6188 34.166H25.9394L20.8153 49H4L14.4249 18.6846L16.7514 24.0249L14.955 17.2282L13.0702 10ZM39.0736 24.7801L41.5178 17.7137H31.623L28.5898 26.4523H44.8161L39.0736 24.7801Z" fill="#2E2D2D"/>
<path d="M59.4579 10H80.6611L70.4424 39.6141L63.5513 41.2863H79.7482L82.9581 32.0083H93.2063L95.5917 41.1245L95.5623 41.2863H95.6211L92.9708 49H50.3877L60.8126 18.6846L63.1391 24.0249L61.3427 17.2282L59.4579 10Z" fill="#2E2D2D"/>
<path d="M108.141 41.2863H124.072L121.717 32.278L115.974 39.3983L108.141 41.2863ZM140.888 49H93.1806L117.27 19.0083L119.802 24.888L118.035 18.0913L115.915 10H130.698L140.888 49Z" fill="#2E2D2D"/>
<path d="M151.888 10H173.091L178.127 29.3112L180.689 39.2905L179.629 31.361L179.335 29.0954L185.902 10H199.065L185.607 49H168.468L166.672 42.1494H166.701L162.49 25.805L163.55 33.7344L163.933 36.5394L159.633 49H142.818L153.243 18.6846L155.569 24.0249L153.773 17.2282L151.888 10Z" fill="#2E2D2D"/>
<path d="M199.857 10H243.471L240.82 17.7137H218.41L215.377 26.4523H232.81L230.16 34.166H212.726L210.841 39.6141L203.95 41.2863H236.02L233.37 49H195.145L193.26 41.7718L201.212 18.6846L203.509 24.0249L201.742 17.2282L199.857 10Z" fill="#2E2D2D"/>
<path d="M245.279 10H287.773L289.776 17.6598H269.721L276.288 19.6017L266.158 49H249.313L260.121 17.6598H247.311L247.163 17.2282L245.279 10Z" fill="#2E2D2D"/>
<path d="M289.953 41.2863H305.885L303.529 32.278L297.786 39.3983L289.953 41.2863ZM322.7 49H274.993L299.082 19.0083L301.615 24.888L299.848 18.0913L297.727 10H312.511L322.7 49Z" fill="#2E2D2D"/>
<path d="M333.7 10H377.344L378.757 15.3403L372.249 34.166H367.949L371.807 49H357.024L353.549 35.6764L353.166 34.166H346.57L341.446 49H324.63L335.055 18.6846L337.382 24.0249L335.585 17.2282L333.7 10ZM359.704 24.7801L362.148 17.7137H352.253L349.22 26.4523H365.446L359.704 24.7801Z" fill="#2E2D2D"/>
<path d="M421 10L389.666 49H374.589L379.595 42.7967L388.695 31.7386L395.232 23.8091L386.368 33.195L384.218 24.888L382.451 18.1452L380.331 10H395.114L397.765 20.1411L405.952 10H421Z" fill="#2E2D2D"/>
<path d="M12.4904 74H58.1551L59.6341 79.4772L52.8244 98.7856H25.9556L20.5942 114H3L13.9078 82.9073L16.342 88.3845L14.4624 81.4136L12.4904 74ZM39.6981 89.1591L42.2556 81.9115H31.9025L28.7288 90.8741H45.7067L39.6981 89.1591Z" fill="#F5D21F"/>
<path d="M60.935 74H101.731L103.826 81.8562V81.9115L105.275 87.3887L98.7115 106.089H98.7732L96 114H56.313L54.2177 106.089L62.3832 82.9073L64.7866 88.3845L62.907 81.4136L60.935 74ZM82.1958 106.089L90.7002 81.9115H80.3471L72.4282 104.373L65.218 106.089H82.1958Z" fill="#F5D21F"/>
<path d="M108.66 74H149.457L151.552 81.8562V81.9115L153 87.3887L146.437 106.089H146.498L143.725 114H99.1699L110.078 82.9073L112.512 88.3845L110.632 81.4136L108.66 74ZM129.89 106.089L138.426 81.9115H128.072L120.153 104.373L112.943 106.089H129.89Z" fill="#F5D21F"/>
<path d="M14.4904 75H60.1551L61.6341 80.4772L54.8244 99.7856H27.9556L22.5942 115H5L15.9078 83.9073L18.342 89.3845L16.4624 82.4136L14.4904 75ZM41.6981 90.1591L44.2556 82.9115H33.9025L30.7288 91.8741H47.7067L41.6981 90.1591Z" fill="#2E2D2D"/>
<path d="M62.935 75H103.731L105.826 82.8562V82.9115L107.275 88.3887L100.712 107.089H100.773L98 115H58.313L56.2177 107.089L64.3832 83.9073L66.7866 89.3845L64.907 82.4136L62.935 75ZM84.1958 107.089L92.7002 82.9115H82.3471L74.4282 105.373L67.218 107.089H84.1958Z" fill="#2E2D2D"/>
<path d="M110.66 75H151.457L153.552 82.8562V82.9115L155 88.3887L148.437 107.089H148.498L145.725 115H101.17L112.078 83.9073L114.512 89.3845L112.632 82.4136L110.66 75ZM131.89 107.089L140.426 82.9115H130.072L122.153 105.373L114.943 107.089H131.89Z" fill="#2E2D2D"/>
<path d="M174.863 72.5H172.945L173.407 74.3616L175.132 81.3069L174.761 82.4403L164.575 113.533L163.93 115.5H166H182.431H183.516L183.856 114.469L188.523 100.286H192.703L192.8 100.687L192.8 100.687L192.802 100.696L196.198 114.362L196.48 115.5H197.653H208.6H211.636H212.099H214.016H258.253H260.172L259.709 113.638L249.752 73.6377L249.469 72.5H248.297H233.851H231.931L232.396 74.3633L234.286 81.933L233.984 82.3277L212.691 110.154L210.246 100.286H212.53H213.616L213.955 99.2549L220.314 79.9464L220.451 79.5327L220.344 79.1104L218.963 73.6332L218.677 72.5H217.508H174.863ZM198.847 88.6896L198.622 89.3741H192.104L194.075 83.4115H200.587L198.847 88.6896ZM239.903 104.589H235.465L238.816 100.228L239.903 104.589ZM267.203 72.5H265.285L265.747 74.3616L267.473 81.3079L267.101 82.4397L259.332 106.119L259.197 106.529L259.301 106.948L261.143 114.362L261.426 115.5H262.599H299.95H300.053H301.037H302.122H318.553H319.639L319.978 114.468L331.963 78.0152L332.781 81.3069L332.409 82.4403L322.223 113.533L321.578 115.5H323.648H340.079H341.165L341.504 114.468L344.811 104.409L345.072 105.474H345.036L345.501 107.337L347.256 114.364L347.54 115.5H348.712H365.459H366.545L366.884 114.468L378.849 78.0733L379.653 81.3079L379.282 82.4397L371.512 106.119L371.378 106.529L371.482 106.948L373.323 114.362L373.606 115.5H374.779H412.13H413.217L413.555 114.467L416.145 106.555L416.789 104.589H416.704L419.253 96.8188L419.387 96.4097L419.284 95.9917L417.931 90.5145L417.65 89.3741H416.475H399.641H397.725L398.185 91.2343L400.039 98.7282L398.122 104.589H391.615L398.597 83.4115H419.41H420.497L420.836 82.3781L423.426 74.4667L424.069 72.5H422H380.682H379.383H378.61H377.465H365.747H364.66L364.321 73.533L358.826 90.3055L354.685 73.6383L354.402 72.5H353.229H333.776H332.511H331.704H330.593H311.889H310.985H309.82H309.067H267.203ZM302.54 104.589H279.445L286.417 83.4115H296.119L293.26 92.0632L291.882 96.2316L295.522 93.7777L307.176 85.9215L307.606 85.6317L307.766 85.1381L308.656 82.3781L308.658 82.3718L310.285 77.4012L311.255 81.3069L310.884 82.4403L303.627 104.589H302.54Z" fill="#F5D21F" stroke="#2E2D2D" stroke-width="3"/>
<path fill-rule="evenodd" clip-rule="evenodd" d="M59.4202 64.6H355.878L359.936 59H55.3616L59.4202 64.6ZM408.669 64.6H356.412L362.606 59H419.879L408.669 64.6ZM58.3522 64.6L52.1573 59H15.2097L4 64.6H15.2097H58.3522Z" fill="#F5D21F"/>
<path fill-rule="evenodd" clip-rule="evenodd" d="M60.5412 66H356.999L361.057 60.4H56.4826L60.5412 66ZM409.79 66H357.533L363.727 60.4H421L409.79 66ZM59.4732 66L53.2783 60.4H16.3306L5.12097 66H59.4732Z" fill="#2E2D2D"/>
</svg>
