<svg width="1193" height="38" viewBox="0 0 1193 38" fill="none" xmlns="http://www.w3.org/2000/svg">
<g clip-path="url(#clip0_12:509)">
<rect width="110.343" height="17" transform="matrix(1 2.66849e-08 -1.14563e-06 1 911.803 13)" fill="#2E2D2D"/>
<rect width="113.903" height="17" transform="matrix(1 2.66849e-08 -1.14563e-06 1 680.438 19)" fill="#2E2D2D"/>
<rect width="113.903" height="17" transform="matrix(1 2.66849e-08 -1.14563e-06 1 360.086 11)" fill="#2E2D2D"/>
<rect width="110.343" height="17" transform="matrix(1 2.66849e-08 -1.14563e-06 1 833.495 19)" fill="#2E2D2D"/>
<rect width="110.343" height="17" transform="matrix(1 2.66849e-08 -1.14563e-06 1 772.984 0)" fill="#2E2D2D"/>
<rect width="110.343" height="17" transform="matrix(1 2.66849e-08 -1.14563e-06 1 662.641 8)" fill="#2E2D2D"/>
<rect width="110.343" height="17" transform="matrix(1 2.66849e-08 -1.14563e-06 1 473.989 16)" fill="#2E2D2D"/>
<rect width="110.343" height="17" transform="matrix(1 2.68299e-08 -1.13944e-06 1 242.624 4)" fill="#2E2D2D"/>
<rect width="113.903" height="17" transform="matrix(1 2.69765e-08 -1.13324e-06 1 103.805 4)" fill="#2E2D2D"/>
<rect width="110.343" height="17" transform="matrix(1 2.66849e-08 -1.14563e-06 1 14.8189 8)" fill="#2E2D2D"/>
<rect width="110.343" height="17" transform="matrix(1 2.66849e-08 -1.14563e-06 1 1082.66 13)" fill="#F5D21F"/>
<rect width="110.343" height="17" transform="matrix(1 2.66849e-08 -1.14563e-06 1 296.016 7)" fill="#F5D21F"/>
<rect width="110.343" height="17" transform="matrix(1 2.66849e-08 -1.14563e-06 1 584.333 12)" fill="#F5D21F"/>
<rect width="113.903" height="17" transform="matrix(1 2.66849e-08 -1.14563e-06 1 719.592 9)" fill="#F5D21F"/>
<rect width="110.343" height="17" transform="matrix(1 2.66849e-08 -1.14563e-06 1 990.111 9)" fill="#F5D21F"/>
<rect width="110.343" height="17" transform="matrix(1 2.66849e-08 -1.14563e-06 1 381.443 2)" fill="#F5D21F"/>
<rect width="110.343" height="17" transform="matrix(1 2.66849e-08 -1.14563e-06 1 53.973 21)" fill="#F5D21F"/>
<rect width="110.343" height="17" transform="matrix(1 2.68299e-08 -1.13944e-06 1 164.316 12)" fill="#F5D21F"/>
<rect width="110.343" height="17" transform="matrix(1 2.66849e-08 -1.14563e-06 1 -63.4892 3)" fill="#F5D21F"/>
</g>
<defs>
<clipPath id="clip0_12:509">
<rect width="1193" height="38" fill="white"/>
</clipPath>
</defs>
</svg>
