<svg width="475" height="131" viewBox="0 0 475 131" fill="none" xmlns="http://www.w3.org/2000/svg">
<g clip-path="url(#clip0_10:392)">
<rect width="475" height="131" fill="white"/>
<rect width="110.343" height="17" transform="matrix(1 2.68299e-08 -1.13944e-06 1 366.624 97)" fill="#2E2D2D"/>
<rect width="113.903" height="17" transform="matrix(1 2.69765e-08 -1.13324e-06 1 227.805 97)" fill="#2E2D2D"/>
<rect width="110.343" height="17" transform="matrix(1 2.66849e-08 -1.14563e-06 1 138.819 101)" fill="#2E2D2D"/>
<rect y="106" width="110" height="17" fill="#2E2D2D"/>
<rect width="110.343" height="17" transform="matrix(1 2.66849e-08 -1.14563e-06 1 420.016 100)" fill="#F5D21F"/>
<rect width="110.343" height="17" transform="matrix(1 2.66849e-08 -1.14563e-06 1 177.973 114)" fill="#F5D21F"/>
<rect width="110.343" height="17" transform="matrix(1 2.68299e-08 -1.13944e-06 1 288.316 105)" fill="#F5D21F"/>
<rect width="110.343" height="17" transform="matrix(1 2.66849e-08 -1.14563e-06 1 60.5109 96)" fill="#F5D21F"/>
<path d="M266.344 51.0399C266.992 51.1924 267.462 51.754 267.498 52.4189C267.534 53.0838 267.127 53.6929 266.499 53.9145L259 56.5613V61.5C259 62.3284 258.328 63 257.5 63H255.5C255.5 63.8284 254.828 64.5 254 64.5H240.5C239.672 64.5 239 63.8284 239 63V58.5H229.5C229.5 59.3284 228.828 60 228 60H219V60.5C219 61.3284 218.328 62 217.5 62H203C202.892 62 202.785 61.9884 202.679 61.9653L186.679 58.4653C185.991 58.3147 185.5 57.7049 185.5 57V48C185.5 47.3117 185.968 46.7117 186.636 46.5448L202.636 42.5448C202.755 42.515 202.877 42.5 203 42.5H217.5C218.328 42.5 219 43.1716 219 44H228C228.828 44 229.5 44.6716 229.5 45.5V46.5H239V42C239 41.1716 239.672 40.5 240.5 40.5H254C254.828 40.5 255.5 41.1716 255.5 42V42.5H257.5C258.328 42.5 259 43.1716 259 44V49.312L266.344 51.0399Z" fill="#F5D21F" stroke="#2E2D2D" stroke-width="3" stroke-linejoin="round"/>
<path d="M266.344 77.0399C266.992 77.1924 267.462 77.754 267.498 78.4189C267.534 79.0838 267.127 79.6929 266.499 79.9145L259 82.5613V87.5C259 88.3284 258.328 89 257.5 89H255.5C255.5 89.8284 254.828 90.5 254 90.5H240.5C239.672 90.5 239 89.8284 239 89V84.5H229.5C229.5 85.3284 228.828 86 228 86H219V86.5C219 87.3284 218.328 88 217.5 88H203C202.892 88 202.785 87.9884 202.679 87.9653L186.679 84.4653C185.991 84.3147 185.5 83.7049 185.5 83V74C185.5 73.3117 185.968 72.7117 186.636 72.5448L202.636 68.5448C202.755 68.515 202.877 68.5 203 68.5H217.5C218.328 68.5 219 69.1716 219 70H228C228.828 70 229.5 70.6716 229.5 71.5V72.5H239V68C239 67.1716 239.672 66.5 240.5 66.5H254C254.828 66.5 255.5 67.1716 255.5 68V68.5H257.5C258.328 68.5 259 69.1716 259 70V75.312L266.344 77.0399Z" fill="#F5D21F" stroke="#2E2D2D" stroke-width="3" stroke-linejoin="round"/>
<path d="M130.474 64.577C131.087 64.7811 131.5 65.3544 131.5 66V68.5C131.5 69.3284 130.828 70 130 70H128.5H116.5C116.5 70.8284 115.828 71.5 115 71.5H114.5C114.5 72.3284 113.828 73 113 73H106C106 73.8284 105.328 74.5 104.5 74.5H98.3138L90.6012 77.8742C90.0168 78.1299 89.3346 77.988 88.9006 77.5204C88.4666 77.0529 88.3758 76.362 88.6743 75.7982L92.6704 68.2499C92.2663 67.9812 92 67.5217 92 67V63.5C92 62.9731 92.2764 62.4848 92.7283 62.2138L95.2283 60.7138C95.4614 60.5739 95.7281 60.5 96 60.5H99V57.5C99 57.1022 99.158 56.7206 99.4393 56.4393L100.939 54.9393C101.241 54.6376 101.657 54.4787 102.083 54.5023C102.509 54.5259 102.905 54.7298 103.171 55.063L105.153 57.5403C105.264 57.5139 105.381 57.5 105.5 57.5H105.585C105.791 56.9174 106.347 56.5 107 56.5H109.5C110.328 56.5 111 57.1716 111 58V58.5H112C112.828 58.5 113.5 59.1716 113.5 60H116.5C116.623 60 116.745 60.015 116.864 60.0448L122.685 61.5H126.5C127.188 61.5 127.788 61.9684 127.955 62.6362L128.256 63.8374L130.474 64.577Z" fill="#F5D21F" stroke="#2E2D2D" stroke-width="3" stroke-linejoin="round"/>
<path d="M186.5 79.5L130.5 69M186.5 52L130.5 66" stroke="#2E2D2D" stroke-dasharray="2 2"/>
<path d="M236.5 58L232 73.5" stroke="#2E2D2D" stroke-dasharray="2 2"/>
<path d="M231.5 58L236 73.5" stroke="#2E2D2D" stroke-dasharray="2 2"/>
</g>
<defs>
<clipPath id="clip0_10:392">
<rect width="475" height="131" fill="white"/>
</clipPath>
</defs>
</svg>
